<?xml version="1.0" encoding="UTF-8"?>
<!DOCTYPE svg PUBLIC "-//W3C//DTD SVG 1.1//EN" "http://www.w3.org/Graphics/SVG/1.1/DTD/svg11.dtd">
<!-- Creator: CorelDRAW 2018 (64-Bit) -->
<svg xmlns="http://www.w3.org/2000/svg" xml:space="preserve" width="144.51mm" height="144.51mm" version="1.1" style="shape-rendering:geometricPrecision; text-rendering:geometricPrecision; image-rendering:optimizeQuality; fill-rule:evenodd; clip-rule:evenodd"
viewBox="0 0 14451.02 14451.02"
 xmlns:xlink="http://www.w3.org/1999/xlink">
 <defs>
  <style type="text/css">
   <![CDATA[
    .fil1 {fill:#6F1110}
    .fil0 {fill:#B61B1A}
   ]]>
  </style>
 </defs>
 <g id="Layer_x0020_1">
  <metadata id="CorelCorpID_0Corel-Layer"/>
  <g id="_2505829132816">
   <path class="fil0" d="M649.17 8213.37l678.64 -222.05c229.25,149.53 1110.04,885.26 1267.22,929.31 344.32,96.48 961.28,90.44 961.28,393.5 0,189.86 -56.45,192.8 -56.45,423.37 0,455.98 427.84,762.58 -186.5,970.71 -221.01,74.88 -306.18,66.54 -362.13,315.27 -85.25,379.01 -128.38,748.01 -213.44,1113.12 -310.34,-207.82 -1116.48,-1267.1 -1317.39,-1674.43 -352.94,-715.56 -535.2,-1056.04 -707.85,-1917.03 -16.7,-83.3 -40.45,-280.43 -63.38,-331.77zm6405.95 -8213.37l386.37 0c695.78,18.3 1388.96,135.55 2052.95,355.96 1774.45,589.01 3186.58,1800.78 4090.66,3417.1 533.57,953.94 823.14,2076.44 865.92,3205.24l0 587.15c-6.05,158.57 -16.96,316.72 -32.82,473.98 -107.4,1064.7 -515.89,2138.58 -1051.61,3012.74 -217.84,355.48 -480.66,661.92 -733.83,987.87 -104.42,134.43 -452.85,478.4 -580.83,576.39 -97.43,74.6 -203.98,173.77 -302.94,261.55 -273.36,242.49 -690.41,-60.85 -455.49,-370.75l456.28 -418.75c67.31,-56.36 88.3,-62.68 154.58,-127.67 108.35,-106.25 161.34,-193.45 267.4,-297.09 934.18,-912.92 1671.71,-2802.62 1687.67,-4098.39l-29.35 -1101.89 -205.48 330.8c-750.41,889.96 -829.94,-545.59 -1089.01,-983.81 -66.65,-112.73 -156.93,-184.12 -241.49,-294.78 -92.14,-120.57 -132.67,-181.19 -326.85,-181.19 120.1,250.3 6.89,349.4 -160.75,488.42 -86.67,71.87 -113.51,113.36 -209.89,185.25 -207.95,155.1 -450.95,329.08 -697.41,431.57 -478.72,199.08 -692.97,429.08 -964.15,-117.35l-524.33 -999.8c-124.62,-207.79 -153.04,-263.84 -153.04,-580.81 -177.49,-47.39 -264.84,-290.81 -454.35,-364.16 -201.64,-78.06 -444.01,-86.93 -516.74,-304.11 -81.91,-244.62 142.7,-425.8 389.1,-360.06 144.53,38.57 473.35,151.36 561.58,230.23 908.98,812.53 456.13,539.12 640.06,996.97 133.06,331.25 459.42,735.8 537.57,1071.24 235.75,-124.75 491.28,-225.51 717.42,-383.34 103.23,-72.05 99.8,-92.51 213.99,-152.93 -59.22,-111.92 -147.8,-221.95 -97.86,-406.83 38.29,-141.75 121.33,-236.34 255.34,-282.43 252.7,-86.93 732.98,-50.81 925.5,57.87 232.14,131.05 629.41,643.83 713.11,895.7 41.92,126.12 77.46,278.44 151.41,384.86 0,-357.24 210.45,-429.43 338.7,-620.94 -16.79,-201.71 -183.6,-612.71 -253.69,-790.63 -52.77,-133.98 -102.1,-234.46 -161.42,-374.85 -100.5,-237.86 -245.83,-448.97 -376.51,-667.8 -178.12,-298.27 -409.17,-628.15 -654.68,-869.46 -53.72,-52.8 -92.8,-86.21 -138.46,-143.78 -143.16,-180.51 -483.92,-481.53 -672.72,-625.61 -706.56,-539.23 -1514.98,-979.43 -2399.38,-1213.37 -287.57,-76.07 -538.17,-130.62 -870.12,-174.65 -345.85,-45.87 -287.68,3.62 -597.77,400.65 -545.35,698.24 -385.31,614.72 -1181.87,878.54l-753.72 262.36c-500,193.63 -434.3,70.74 -522.75,267.54 -101.96,226.83 -314.02,690.9 -364.13,905.98 87.72,131 305.61,478.22 423.37,564.5 81.91,-306.74 634.75,-569.35 932.51,-591.63 149.33,-11.17 367.73,-24.03 465.42,40.44 160.85,106.14 165.55,393.58 -17.4,492.26 -92.95,50.14 -95.29,26.61 -222.16,31.86 -389.1,16.09 -482.06,116.43 -678.55,324.93 -28.91,34.9 -61.41,35.19 -80.65,177.94l227.35 -24.21c274.18,-17.06 1346.62,-151.28 1179.86,564.49 116.03,27.04 203.84,112.93 310.47,169.35 115.92,-77.62 288.15,-317.35 621.58,-227.78 477.72,128.34 904.31,218.91 1160.91,590.37 127.76,184.95 190.75,368.92 285.84,589.12 104.41,241.8 269.39,699.56 436.36,890.2 285.08,325.48 601.62,79.49 890.84,407.49 342.17,388.06 -268.03,900.83 -467.35,1102.15 -739.26,746.72 -453.23,582.13 -391,1139.28 54.91,491.54 -177.85,649.81 -399.62,920.79 -109.65,133.96 -112.95,308.14 -314.89,560.07 -102.23,127.53 -105.84,98.87 -151.94,271.44 -80.76,302.35 -140.94,359.02 -311.17,563.79 -78.95,94.97 -384.06,313.02 -504.51,370.45 -584.56,278.72 -859.3,-42.5 -1071.79,-497.19 -50.21,-107.46 -81.88,-215.87 -125.97,-325.62 -39.05,-97.2 -74.02,-191.21 -120.8,-302.57 -194.03,-461.93 -419.26,-819.14 -245.77,-1342.14 272.85,-822.51 -267.97,-588.1 -331.73,-1241.52 -20.85,-213.71 123.09,-439.09 -494.05,-289.87 -1659.2,401.19 -2613.55,-1515.41 -1617.79,-2690.33l781.98 -967.95c-23.42,-87.7 -38.22,-76.87 -95.64,-158.38 -849.99,-1206.36 -814.07,-862.52 -444.36,-1764.62 51.37,-125.33 92.83,-243.15 145.59,-362.46 41.22,-93.22 95.44,-256.14 140.99,-338.83 75.13,-136.4 152.43,-146.64 305.52,-202.53 111.32,-40.64 220.26,-81.74 353.7,-126.11 177.78,-59.13 1322.18,-408.84 1430.36,-545.36l421.81 -537.83c-891.18,0 -1490.07,156.1 -2275.75,433.82 -264.19,93.38 -1490.01,685.44 -1703.92,977.41 690.79,462.58 791.38,1349.51 218.57,1912.06 -299.53,294.17 -593.53,849.68 -801.6,1230.56 -270.53,495.21 -321.87,516.9 -799.98,837.06 101.53,151.62 208.89,296.05 311.4,450.69 351.72,530.61 -421.31,547.83 -711.22,588.95 -213.66,30.29 -490.55,85.29 -641.34,-23.56 -57.4,-91.17 -26.19,-80.64 -116.05,-111.08 -54.65,108.83 -48.53,625.07 0,731.59 77.21,-36.37 745.1,-252.76 813.04,-247.25 126.06,10.21 247.49,125.61 340.29,195.12 101.16,75.77 187.07,147.8 286.12,221.92 1094.57,819 456.56,464.27 1412.11,704.74 439.82,110.68 730.73,520.1 704.85,901.74 -10.22,150.65 -84.6,266.14 -46.14,442.17 56.46,258.4 222.88,470.27 63.85,876.3 -80.82,206.37 -314.46,457.02 -554.08,495.39 -123.92,41.61 -113.5,0.52 -141.07,135.96 -0.1,129.9 -192.23,1143.58 -225.86,1213.66 62.03,41.53 106.47,80.86 180.48,130l516.08 330.66c1491.67,830.37 3069.21,1036.01 4748.84,694.59 507.23,-103.11 1105.22,-477.32 1273.38,-140.04 226.16,453.6 -672.94,591.86 -994.85,672.59 -497.73,124.82 -1002.26,190.36 -1505.4,203.25l-373.81 0c-741.69,-18.94 -1475.89,-149.33 -2176.15,-370.23 -261.25,-82.41 -586.93,-216.63 -821.94,-335.28 -496.61,-250.72 -971.26,-535.21 -1402.25,-883.94 -1440.39,-1165.45 -2517.88,-3006.87 -2690.21,-5007.25l0 -1116.44c10.85,-123.77 25.29,-247.77 43.65,-371.9 107.2,-724.54 236.93,-1251.96 472.21,-1842.22 727.86,-1825.97 2214.04,-3312.24 4048.09,-4024.15 794.62,-308.45 1641.17,-477.35 2491.17,-499.61zm-1172.44 4939.31l381.1 -26.21 5.24 195.56c26.32,146.6 141.96,185.66 306,283.57 245.98,146.84 511.72,376.2 845.15,335.8 144.52,-17.5 306.99,-122.79 341.61,-252.45 148.76,34.66 290.46,74.86 441.47,123.03 320.63,102.27 360.18,209.79 518.17,610.81 257.64,653.98 553.5,1495.91 1326.55,1495.91 -40.13,150.32 -582.85,561.68 -790.97,874.28 -110.11,165.38 -184.91,355.43 -169.18,649.99 6.79,127.07 39.22,235.14 68.49,356.08 103.21,426.59 -132.93,275.64 -383.33,767.88 -56.61,111.3 -57.32,186.18 -131.35,292.02 -61.05,87.29 -130.55,149.93 -186.66,236.71 -121.57,188.02 -111.97,427.78 -247.59,570.92 -120.85,127.54 -312.05,300.43 -502.05,344.69 -135,-98.91 -678.73,-1482.76 -673.53,-1634.74 13.65,-399.78 435.26,-703.11 -157.81,-1457.14 -93.67,-119.09 -95.44,-99.59 -100.66,-294.49 -30.2,-1127.49 -1307.4,-654.39 -1467.93,-648.27 -662.16,25.24 -1171.27,-605.82 -1028.05,-1284.39 84.73,-401.45 481.58,-772.07 778.93,-1168.57 224.37,-299.18 226.76,-359.55 826.4,-370.99zm-4810.14 931.42c0,257.97 124.95,329.59 282.24,564.49 -297.76,0 -268.07,125.4 -544.13,-133.26 -82.09,-76.92 -146.74,-98.21 -124.87,-248.77 79.3,-545.86 377.95,-1350.17 603.15,-1800.68 178.59,-357.28 372.94,-676.5 597.69,-982.88l351.43 -438.87c80.68,-95.95 323.34,-342.02 415.07,-403.44 278.18,64.81 479.82,342.36 479.82,649.17 0,327.17 -321.76,531.31 -476.11,737.55l-671.42 1134.95c-201.23,369.79 -232.01,298.86 -622.69,590.98 -117.3,87.72 -290.18,152.39 -290.18,330.76z"/>
   <path class="fil0" d="M9878.63 11205.19c0,409.61 259.2,733.84 620.94,733.84 619.41,0 844.42,-1312.47 1048.07,-1943.92 63.56,-197.06 52.48,-210.29 2.1,-404.42 -34.89,-134.45 -58.98,-278.31 -108.98,-399.23 -99.82,-241.37 -400.06,-320.56 -556.28,-0.46 -53.05,108.7 -107.94,242.78 -174.12,333.92 -74.96,103.22 -197.97,134.41 -308.07,199.98 -596.97,355.56 -273.99,685.35 -426.08,1069.83 -48.41,122.38 -97.58,255.83 -97.58,410.46z"/>
   <path class="fil0" d="M7790 3506.16l-151.82 -147.43c-285.77,-175.29 -577.94,259.37 -322.51,474.41 249.39,209.96 625.65,-52.07 474.33,-326.98z"/>
   <path class="fil0" d="M10979.39 13265.58c0,-219.9 -90.57,-310.47 -310.47,-310.47 -249.32,0 -356,335.84 -190.68,501.16 165.32,165.31 501.15,58.63 501.15,-190.69z"/>
   <path class="fil1" d="M592.72 7620.22l52.01 -671.68c35.46,26.97 20.57,22.41 64.04,51.17 -57.4,-91.17 -26.19,-80.64 -116.05,-111.08 -54.65,108.83 -48.53,625.07 0,731.59z"/>
   <path class="fil1" d="M6269.02 5108.66l-5.24 -195.56 -381.1 26.21 354.97 0c0,9.95 -1.99,81.46 -1.3,85.85 15.23,96.78 2.57,40.83 32.67,83.5z"/>
   <path class="fil1" d="M5735.18 4374.82l-203.15 0 56.45 -153.73c-28.91,34.9 -61.41,35.19 -80.65,177.94l227.35 -24.21z"/>
   <path class="fil1" d="M7790 3506.16c-54.34,-117.2 -40.9,-102.86 -151.82,-147.43l151.82 147.43z"/>
   <path class="fil1" d="M3471.69 11346.31c97.44,-137.49 23.66,-39.81 141.07,-135.96 -123.92,41.61 -113.5,0.52 -141.07,135.96z"/>
  </g>
 </g>
</svg>
