<?xml version="1.0" encoding="UTF-8"?>
<svg width="70px" height="63px" viewBox="0 0 70 63" version="1.1" xmlns="http://www.w3.org/2000/svg" xmlns:xlink="http://www.w3.org/1999/xlink">
    <!-- Generator: Sketch 51.3 (57544) - http://www.bohemiancoding.com/sketch -->
    <title>subsidiaries-mobile-banking-uba</title>
    <desc>Created with Sketch.</desc>
    <defs>
        <polygon id="path-1" points="0 62.6391549 69.5070423 62.6391549 69.5070423 0.000197183099 0 0.000197183099"></polygon>
        <polygon id="path-3" points="0 62.6391549 69.5070423 62.6391549 69.5070423 0.000197183099 0 0.000197183099"></polygon>
        <polygon id="path-5" points="0 62.6391549 69.5070423 62.6391549 69.5070423 0.000197183099 0 0.000197183099"></polygon>
        <polygon id="path-7" points="0 62.6391549 69.5070423 62.6391549 69.5070423 0.000197183099 0 0.000197183099"></polygon>
        <polygon id="path-9" points="0 62.6391549 69.5070423 62.6391549 69.5070423 0.000197183099 0 0.000197183099"></polygon>
        <polygon id="path-11" points="0 62.6391549 69.5070423 62.6391549 69.5070423 0.000197183099 0 0.000197183099"></polygon>
        <polygon id="path-13" points="0 62.6391549 69.5070423 62.6391549 69.5070423 0.000197183099 0 0.000197183099"></polygon>
        <polygon id="path-15" points="0 62.6391549 69.5070423 62.6391549 69.5070423 0.000197183099 0 0.000197183099"></polygon>
        <polygon id="path-17" points="0 62.6391549 69.5070423 62.6391549 69.5070423 0.000197183099 0 0.000197183099"></polygon>
        <polygon id="path-19" points="0 62.6391549 69.5070423 62.6391549 69.5070423 0.000197183099 0 0.000197183099"></polygon>
        <polygon id="path-21" points="0 62.6391549 69.5070423 62.6391549 69.5070423 0.000197183099 0 0.000197183099"></polygon>
        <polygon id="path-23" points="0 62.6391549 69.5070423 62.6391549 69.5070423 0.000197183099 0 0.000197183099"></polygon>
        <polygon id="path-25" points="0 62.6391549 69.5070423 62.6391549 69.5070423 0.000197183099 0 0.000197183099"></polygon>
        <polygon id="path-27" points="0 62.6391549 69.5070423 62.6391549 69.5070423 0.000197183099 0 0.000197183099"></polygon>
        <polygon id="path-29" points="0 62.6391549 69.5070423 62.6391549 69.5070423 0.000197183099 0 0.000197183099"></polygon>
        <polygon id="path-31" points="0 62.6391549 69.5070423 62.6391549 69.5070423 0.000197183099 0 0.000197183099"></polygon>
        <polygon id="path-33" points="0 62.6391549 69.5070423 62.6391549 69.5070423 0.000197183099 0 0.000197183099"></polygon>
        <polygon id="path-35" points="0 62.6391549 69.5070423 62.6391549 69.5070423 0.000197183099 0 0.000197183099"></polygon>
        <polygon id="path-37" points="0 62.6391549 69.5070423 62.6391549 69.5070423 0.000197183099 0 0.000197183099"></polygon>
        <polygon id="path-39" points="0 62.6391549 69.5070423 62.6391549 69.5070423 0.000197183099 0 0.000197183099"></polygon>
        <polygon id="path-41" points="0 62.6391549 69.5070423 62.6391549 69.5070423 0.000197183099 0 0.000197183099"></polygon>
        <polygon id="path-43" points="0 62.6391549 69.5070423 62.6391549 69.5070423 0.000197183099 0 0.000197183099"></polygon>
        <polygon id="path-45" points="0 62.6391549 69.5070423 62.6391549 69.5070423 0.000197183099 0 0.000197183099"></polygon>
        <polygon id="path-47" points="0 62.6391549 69.5070423 62.6391549 69.5070423 0.000197183099 0 0.000197183099"></polygon>
        <polygon id="path-49" points="0 62.6391549 69.5070423 62.6391549 69.5070423 0.000197183099 0 0.000197183099"></polygon>
        <polygon id="path-51" points="0 62.6391549 69.5070423 62.6391549 69.5070423 0.000197183099 0 0.000197183099"></polygon>
    </defs>
    <g id="Page-1" stroke="none" stroke-width="1" fill="none" fill-rule="evenodd">
        <g id="subsidiaries-mobile-banking-uba">
            <path d="M62.58,29.6149296 C62.58,44.5209859 50.4966197,56.6043662 35.5905634,56.6043662 C20.685493,56.6043662 8.60112676,44.5209859 8.60112676,29.6149296 C8.60112676,14.7088732 20.685493,2.62549296 35.5905634,2.62549296 C50.4966197,2.62549296 62.58,14.7088732 62.58,29.6149296" id="Shape" fill="#F1F2F6" fill-rule="nonzero"></path>
            <g id="Clipped">
                <mask id="mask-2" fill="white">
                    <use xlink:href="#path-1"></use>
                </mask>
                <g id="z"></g>
                <polygon id="Shape" fill="#BEC0CC" fill-rule="nonzero" mask="url(#mask-2)" points="1.97183099 28.7976056 3.8815493 28.7976056 3.8815493 22.9126761 1.97183099 22.9126761"></polygon>
            </g>
            <g id="Clipped">
                <mask id="mask-4" fill="white">
                    <use xlink:href="#path-3"></use>
                </mask>
                <g id="o"></g>
                <polygon id="Shape" fill="#BEC0CC" fill-rule="nonzero" mask="url(#mask-4)" points="0 26.7952113 5.91549296 26.7952113 5.91549296 24.8539437 0 24.8539437"></polygon>
            </g>
            <g id="Clipped">
                <mask id="mask-6" fill="white">
                    <use xlink:href="#path-5"></use>
                </mask>
                <g id="d"></g>
                <polygon id="Shape" fill="#BEC0CC" fill-rule="nonzero" mask="url(#mask-6)" points="65.5633803 34.6992958 67.4730986 34.6992958 67.4730986 28.8143662 65.5633803 28.8143662"></polygon>
            </g>
            <g id="Clipped">
                <mask id="mask-8" fill="white">
                    <use xlink:href="#path-7"></use>
                </mask>
                <g id="b"></g>
                <polygon id="Shape" fill="#BEC0CC" fill-rule="nonzero" mask="url(#mask-8)" points="63.5915493 32.6959155 69.5070423 32.6959155 69.5070423 30.7546479 63.5915493 30.7546479"></polygon>
            </g>
            <g id="Clipped">
                <mask id="mask-10" fill="white">
                    <use xlink:href="#path-9"></use>
                </mask>
                <g id="a"></g>
                <polygon id="Shape" fill="#BEC0CC" fill-rule="nonzero" mask="url(#mask-10)" points="58.636338 54.9569014 60.5460563 54.9569014 60.5460563 49.0719718 58.636338 49.0719718"></polygon>
            </g>
            <g id="Clipped">
                <mask id="mask-12" fill="white">
                    <use xlink:href="#path-11"></use>
                </mask>
                <g id="y"></g>
                <polygon id="Shape" fill="#BEC0CC" fill-rule="nonzero" mask="url(#mask-12)" points="56.664507 52.954507 62.58 52.954507 62.58 51.0132394 56.664507 51.0132394"></polygon>
            </g>
            <g id="Clipped">
                <mask id="mask-14" fill="white">
                    <use xlink:href="#path-13"></use>
                </mask>
                <g id="x"></g>
                <polygon id="Shape" fill="#BEC0CC" fill-rule="nonzero" mask="url(#mask-14)" points="21.7995775 31.756338 23.7092958 31.756338 23.7092958 25.8714085 21.7995775 25.8714085"></polygon>
            </g>
            <g id="Clipped">
                <mask id="mask-16" fill="white">
                    <use xlink:href="#path-15"></use>
                </mask>
                <g id="w"></g>
                <polygon id="Shape" fill="#BEC0CC" fill-rule="nonzero" mask="url(#mask-16)" points="19.8267606 29.7539437 25.7422535 29.7539437 25.7422535 27.8126761 19.8267606 27.8126761"></polygon>
            </g>
            <g id="Clipped">
                <mask id="mask-18" fill="white">
                    <use xlink:href="#path-17"></use>
                </mask>
                <g id="v"></g>
                <path d="M49.8528169,19.7064789 C49.0956338,18.5007042 49.4623944,16.8946479 50.668169,16.1384507 L53.8684507,14.128169 C55.0742254,13.3719718 56.6802817,13.7387324 57.4364789,14.9435211 C58.193662,16.1492958 57.8269014,17.7553521 56.6211268,18.5125352 L53.4208451,20.521831 C52.2150704,21.2790141 50.61,20.9122535 49.8528169,19.7064789" id="Shape" fill="#FEFEFE" fill-rule="nonzero" mask="url(#mask-18)"></path>
            </g>
            <g id="Clipped">
                <mask id="mask-20" fill="white">
                    <use xlink:href="#path-19"></use>
                </mask>
                <g id="u"></g>
                <path d="M55.2408451,14.2257746 C54.8602817,14.2257746 54.4767606,14.3283099 54.1307042,14.5461972 L50.9294366,16.555493 C49.9523944,17.1697183 49.6556338,18.4661972 50.2698592,19.4442254 C50.5656338,19.915493 51.03,20.2438028 51.5771831,20.3690141 C52.1292958,20.4961972 52.686338,20.4005634 53.1585915,20.1047887 L56.3588732,18.094507 C56.8301408,17.7987324 57.1584507,17.3333803 57.283662,16.7871831 C57.4088732,16.2390141 57.3152113,15.6780282 57.0194366,15.2057746 C56.6211268,14.5738028 55.9388732,14.2257746 55.2408451,14.2257746 M52.0553521,21.4091549 C51.8226761,21.4091549 51.59,21.3835211 51.3583099,21.3302817 C50.5538028,21.1469014 49.8705634,20.6628169 49.4338028,19.9677465 C48.5316901,18.5302817 48.9674648,16.624507 50.4059155,15.7214085 L53.6071831,13.7111268 C55.0446479,12.8080282 56.9504225,13.2438028 57.8535211,14.6822535 C58.2902817,15.376338 58.4283099,16.2015493 58.2449296,17.0060563 C58.0605634,17.8105634 57.5774648,18.4938028 56.8823944,18.9295775 L53.6821127,20.9398592 C53.188169,21.2494366 52.6271831,21.4091549 52.0553521,21.4091549" id="Shape" fill="#231F20" fill-rule="nonzero" mask="url(#mask-20)"></path>
            </g>
            <g id="Clipped">
                <mask id="mask-22" fill="white">
                    <use xlink:href="#path-21"></use>
                </mask>
                <g id="t"></g>
                <path d="M47.9194366,44.0369014 L30.5012676,44.0369014 C28.3322535,44.0369014 26.5576056,42.2622535 26.5576056,40.0932394 L26.5576056,4.4356338 C26.5576056,2.26661972 28.3322535,0.491971831 30.5012676,0.491971831 L47.9194366,0.491971831 C50.0884507,0.491971831 51.8630986,2.26661972 51.8630986,4.4356338 L51.8630986,40.0932394 C51.8630986,42.2622535 50.0884507,44.0369014 47.9194366,44.0369014" id="Shape" fill="#FEFEFE" fill-rule="nonzero" mask="url(#mask-22)"></path>
            </g>
            <g id="Clipped">
                <mask id="mask-24" fill="white">
                    <use xlink:href="#path-23"></use>
                </mask>
                <g id="s"></g>
                <path d="M30.5012676,0.985915493 C28.5984507,0.985915493 27.0505634,2.53380282 27.0505634,4.43661972 L27.0505634,40.0942254 C27.0505634,41.9960563 28.5984507,43.5449296 30.5012676,43.5449296 L47.9184507,43.5449296 C49.8212676,43.5449296 51.3691549,41.9960563 51.3691549,40.0942254 L51.3691549,4.43661972 C51.3691549,2.53380282 49.8212676,0.985915493 47.9184507,0.985915493 L30.5012676,0.985915493 Z M47.9184507,44.5308451 L30.5012676,44.5308451 C28.0552113,44.5308451 26.0646479,42.5402817 26.0646479,40.0942254 L26.0646479,4.43661972 C26.0646479,1.99056338 28.0552113,0 30.5012676,0 L47.9184507,0 C50.364507,0 52.3550704,1.99056338 52.3550704,4.43661972 L52.3550704,40.0942254 C52.3550704,42.5402817 50.364507,44.5308451 47.9184507,44.5308451 Z" id="Shape" fill="#333333" fill-rule="nonzero" mask="url(#mask-24)"></path>
            </g>
            <g id="Clipped">
                <mask id="mask-26" fill="white">
                    <use xlink:href="#path-25"></use>
                </mask>
                <g id="r"></g>
                <polygon id="Shape" fill="#333333" fill-rule="nonzero" mask="url(#mask-26)" points="27.6253521 5.87428169 51.2873239 5.87428169 51.2873239 4.8883662 27.6253521 4.8883662"></polygon>
            </g>
            <g id="Clipped">
                <mask id="mask-28" fill="white">
                    <use xlink:href="#path-27"></use>
                </mask>
                <g id="q"></g>
                <polygon id="Shape" fill="#333333" fill-rule="nonzero" mask="url(#mask-28)" points="27.6253521 36.3142254 51.2873239 36.3142254 51.2873239 35.3283099 27.6253521 35.3283099"></polygon>
            </g>
            <g id="Clipped">
                <mask id="mask-30" fill="white">
                    <use xlink:href="#path-29"></use>
                </mask>
                <g id="p"></g>
                <path d="M14.9316901,40.8740845 L18.9985915,36.4374648 C18.9985915,36.4374648 18.8753521,27.3177465 20.6007042,24.6064789 C22.3260563,21.8952113 23.3119718,15.9797183 23.1887324,14.9938028 C23.065493,14.0078873 23.3119718,12.8987324 24.5443662,13.2684507 C25.7767606,13.638169 28.7167606,16.3642254 29.2274648,18.6495775 C29.9264789,21.7719718 28.9809859,25.7156338 27.3788732,27.5642254 C27.3788732,27.5642254 32.4316901,37.053662 29.843662,45.5571831" id="Shape" fill="#FEFEFE" fill-rule="nonzero" mask="url(#mask-30)"></path>
            </g>
            <g id="Clipped">
                <mask id="mask-32" fill="white">
                    <use xlink:href="#path-31"></use>
                </mask>
                <g id="n"></g>
                <path d="M30.3159155,45.7011268 L29.3723944,45.4142254 C31.8716901,37.2005634 26.9943662,27.8885915 26.9440845,27.7959155 L26.7853521,27.4971831 L27.0071831,27.241831 C28.6014085,25.4021127 29.3812676,21.595493 28.746338,18.7570423 C28.2780282,16.6590141 25.5105634,14.0729577 24.4033803,13.7407042 C24.2308451,13.6904225 24.0011268,13.65 23.8739437,13.7564789 C23.6885915,13.9132394 23.6097183,14.3864789 23.6787324,14.9326761 C23.8216901,16.0773239 22.7756338,22.1091549 21.0167606,24.8716901 C19.39,27.4271831 19.4915493,36.341831 19.4915493,36.4315493 L19.494507,36.6267606 L15.295493,41.2073239 L14.5688732,40.541831 L18.5046479,36.248169 C18.4967606,34.8609859 18.5253521,26.9509859 20.1856338,24.3412676 C21.84,21.7414085 22.8061972,15.901831 22.6997183,15.0559155 C22.6326761,14.5156338 22.6129577,13.5316901 23.2370423,13.0032394 C23.4933803,12.7892958 23.9538028,12.5753521 24.686338,12.7961972 C26.04,13.2023944 29.1525352,16.0546479 29.7095775,18.5421127 C30.3750704,21.5215493 29.5952113,25.4997183 27.964507,27.626338 C28.8114085,29.3290141 32.7087324,37.8384507 30.3159155,45.7011268" id="Shape" fill="#333333" fill-rule="nonzero" mask="url(#mask-32)"></path>
            </g>
            <g id="Clipped">
                <mask id="mask-34" fill="white">
                    <use xlink:href="#path-33"></use>
                </mask>
                <g id="m"></g>
                <polygon id="Shape" fill="#333333" fill-rule="nonzero" mask="url(#mask-34)" points="36.3753521 40.5043662 41.9211268 40.5043662 41.9211268 39.5184507 36.3753521 39.5184507"></polygon>
            </g>
            <g id="Clipped">
                <mask id="mask-36" fill="white">
                    <use xlink:href="#path-35"></use>
                </mask>
                <g id="l"></g>
                <path d="M28.6684507,54.4580282 L27.9714085,53.7609859 L31.3757746,50.353662 L31.5956338,50.365493 C31.6892958,50.365493 41.3394366,50.7894366 45.5670423,43.7835211 L46.41,44.2912676 C42.1912676,51.2843662 33.3229577,51.3957746 31.7671831,51.3573239 L28.6684507,54.4580282 Z" id="Shape" fill="#333333" fill-rule="nonzero" mask="url(#mask-36)"></path>
            </g>
            <g id="Clipped">
                <mask id="mask-38" fill="white">
                    <use xlink:href="#path-37"></use>
                </mask>
                <g id="k"></g>
                <path d="M49.8528169,42.828169 C49.0956338,41.6223944 49.4623944,40.016338 50.668169,39.2601408 L53.8684507,37.2498592 C55.0742254,36.4926761 56.6802817,36.8594366 57.4364789,38.0652113 C58.193662,39.2709859 57.8269014,40.8770423 56.6211268,41.6332394 L53.4208451,43.6435211 C52.2150704,44.4007042 50.61,44.0339437 49.8528169,42.828169" id="Shape" fill="#FEFEFE" fill-rule="nonzero" mask="url(#mask-38)"></path>
            </g>
            <g id="Clipped">
                <mask id="mask-40" fill="white">
                    <use xlink:href="#path-39"></use>
                </mask>
                <g id="j"></g>
                <path d="M55.2408451,37.3474648 C54.8602817,37.3474648 54.4767606,37.45 54.1307042,37.6678873 L50.9294366,39.6771831 C49.9514085,40.2914085 49.6556338,41.5869014 50.2698592,42.5659155 C50.5656338,43.0371831 51.03,43.365493 51.5771831,43.4907042 C52.126338,43.6149296 52.686338,43.5222535 53.1585915,43.225493 L56.3588732,41.2161972 C56.8291549,40.9204225 57.1584507,40.4550704 57.283662,39.9078873 C57.4088732,39.3607042 57.3152113,38.7997183 57.0194366,38.3274648 C56.6211268,37.695493 55.9388732,37.3474648 55.2408451,37.3474648 M52.0494366,44.531831 C51.0230986,44.531831 50.0184507,44.0211268 49.4338028,43.0894366 C48.5307042,41.6509859 48.9664789,39.7452113 50.4059155,38.8421127 L53.6071831,36.8328169 C55.0446479,35.9297183 56.9504225,36.365493 57.8535211,37.8039437 C58.7566197,39.2414085 58.321831,41.1471831 56.8823944,42.0512676 L53.6821127,44.0615493 C53.1743662,44.38 52.6084507,44.531831 52.0494366,44.531831" id="Shape" fill="#333333" fill-rule="nonzero" mask="url(#mask-40)"></path>
            </g>
            <g id="Clipped">
                <mask id="mask-42" fill="white">
                    <use xlink:href="#path-41"></use>
                </mask>
                <g id="i"></g>
                <path d="M50.376338,35.2405634 C49.6191549,34.0347887 49.9859155,32.4297183 51.1916901,31.6725352 L54.3919718,29.6632394 C55.5977465,28.9060563 57.2038028,29.2728169 57.96,30.4785915 C58.7171831,31.6843662 58.3504225,33.2894366 57.1446479,34.0466197 L53.9443662,36.0559155 C52.7385915,36.8140845 51.1335211,36.446338 50.376338,35.2405634" id="Shape" fill="#FEFEFE" fill-rule="nonzero" mask="url(#mask-42)"></path>
            </g>
            <g id="Clipped">
                <mask id="mask-44" fill="white">
                    <use xlink:href="#path-43"></use>
                </mask>
                <g id="h"></g>
                <path d="M55.7594366,29.7608451 C55.37,29.7608451 54.9904225,29.8692958 54.6542254,30.0792958 L51.4539437,32.0895775 C50.9816901,32.3853521 50.6533803,32.8507042 50.528169,33.3978873 C50.4029577,33.9460563 50.4976056,34.5070423 50.7933803,34.9783099 L50.7943662,34.9783099 C51.4076056,35.9573239 52.7030986,36.2530986 53.6821127,35.6378873 L56.8833803,33.6276056 C57.8614085,33.0143662 58.1571831,31.7178873 57.5429577,30.7398592 C57.2471831,30.2695775 56.781831,29.9402817 56.233662,29.8150704 C56.0759155,29.7785915 55.9171831,29.7608451 55.7594366,29.7608451 M52.5729577,36.9452113 C51.5476056,36.9452113 50.5439437,36.4335211 49.9592958,35.5028169 C49.5225352,34.8087324 49.3835211,33.9835211 49.5678873,33.1780282 C49.7512676,32.3735211 50.2343662,31.6902817 50.9304225,31.254507 L54.1307042,29.2452113 C55.568169,28.3421127 57.4739437,28.7769014 58.3770423,30.216338 C59.2811268,31.6547887 58.8453521,33.5605634 57.4069014,34.463662 L54.2056338,36.4739437 C53.6978873,36.7923944 53.1319718,36.9452113 52.5729577,36.9452113" id="Shape" fill="#333333" fill-rule="nonzero" mask="url(#mask-44)"></path>
            </g>
            <g id="Clipped">
                <mask id="mask-46" fill="white">
                    <use xlink:href="#path-45"></use>
                </mask>
                <g id="g"></g>
                <path d="M50.7046479,28.2366197 C49.9474648,27.0308451 50.3142254,25.4257746 51.52,24.6685915 L54.7212676,22.6592958 C55.9270423,21.9021127 57.5321127,22.2688732 58.2883099,23.4746479 C59.0464789,24.6804225 58.6787324,26.285493 57.4729577,27.0426761 L54.2726761,29.0519718 C53.0669014,29.8091549 51.461831,29.4423944 50.7046479,28.2366197" id="Shape" fill="#FEFEFE" fill-rule="nonzero" mask="url(#mask-46)"></path>
            </g>
            <g id="Clipped">
                <mask id="mask-48" fill="white">
                    <use xlink:href="#path-47"></use>
                </mask>
                <g id="f"></g>
                <path d="M51.1216901,27.9753521 C51.4174648,28.4476056 51.881831,28.7759155 52.4290141,28.8991549 C52.978169,29.026338 53.5371831,28.9316901 54.0104225,28.6349296 L57.2107042,26.6246479 C58.1887324,26.0104225 58.484507,24.7149296 57.8702817,23.7359155 C57.2580282,22.7588732 55.9615493,22.4601408 54.9815493,23.076338 L51.7812676,25.0866197 C50.8032394,25.6998592 50.5074648,26.996338 51.1216901,27.9753521 M52.9061972,29.9402817 C52.674507,29.9402817 52.441831,29.9146479 52.2101408,29.8614085 C51.4056338,29.6780282 50.7223944,29.1939437 50.2856338,28.4988732 C49.3835211,27.0594366 49.8192958,25.1546479 51.2577465,24.2515493 L54.4580282,22.2412676 C55.8964789,21.3361972 57.8022535,21.7739437 58.7053521,23.2123944 C59.1411268,23.9064789 59.2801408,24.7316901 59.0967606,25.5361972 C58.9123944,26.3407042 58.4292958,27.0239437 57.7342254,27.4607042 L54.5339437,29.47 C54.04,29.7795775 53.4790141,29.9402817 52.9061972,29.9402817" id="Shape" fill="#333333" fill-rule="nonzero" mask="url(#mask-48)"></path>
            </g>
            <g id="Clipped">
                <mask id="mask-50" fill="white">
                    <use xlink:href="#path-49"></use>
                </mask>
                <g id="e"></g>
                <polygon id="Shape" fill="#FEFEFE" fill-rule="nonzero" mask="url(#mask-50)" points="7.92764789 45.5739437 13.3246479 39.8842254 30.5811268 56.2523944 25.1842254 61.9430986"></polygon>
            </g>
            <g id="Clipped">
                <mask id="mask-52" fill="white">
                    <use xlink:href="#path-51"></use>
                </mask>
                <g id="c"></g>
                <path d="M8.62478873,45.5552113 L25.164507,61.2450704 L29.8830986,56.2711268 L13.3423944,40.5812676 L8.62478873,45.5552113 Z M25.2009859,62.6391549 L7.23070423,45.5916901 L13.3059155,39.1871831 L31.278169,56.2346479 L25.2009859,62.6391549 Z" id="Shape" fill="#333333" fill-rule="nonzero" mask="url(#mask-52)"></path>
            </g>
        </g>
    </g>
</svg>