<?xml version="1.0" encoding="UTF-8"?>
<svg width="48px" height="40px" viewBox="0 0 48 40" version="1.1" xmlns="http://www.w3.org/2000/svg" xmlns:xlink="http://www.w3.org/1999/xlink">
    <!-- Generator: Sketch 50.2 (55047) - http://www.bohemiancoding.com/sketch -->
    <title>Twitter</title>
    <desc>Created with Sketch.</desc>
    <defs></defs>
    <g id="Page-1" stroke="none" stroke-width="1" fill="none" fill-rule="evenodd">
        <g id="Sign-in" transform="translate(-399.000000, -278.000000)" fill="#FFFFFF" fill-rule="nonzero">
            <g id="uba-twitter" transform="translate(399.000000, 278.000000)">
                <path d="M47.2727273,4.73583018 C45.5339771,5.53872182 43.6652273,6.08167345 41.7019316,6.32623236 C43.7051135,5.07575164 45.2429545,3.09774655 45.9668182,0.739829091 C44.0936364,1.89648545 42.0165909,2.73629164 39.8080684,3.19003309 C38.0397727,1.22740909 35.5180684,0 32.7289771,0 C27.3723862,0 23.0306818,4.52203345 23.0306818,10.0976698 C23.0306818,10.8897945 23.1148865,11.6603862 23.2818182,12.4002153 C15.2203407,11.977236 8.07477273,7.95816364 3.29136364,1.848804 C2.45670436,3.34076764 1.978068,5.07575164 1.978068,6.92609382 C1.978068,10.4299007 3.69022727,13.5199571 6.29170473,15.3303084 C4.70215927,15.2780127 3.20715927,14.8242713 1.89977273,14.0675229 C1.89829527,14.1090516 1.89829527,14.1521189 1.89829527,14.1936476 C1.89829527,19.0863647 5.24136364,23.1684996 9.67909091,24.0959778 C8.86511382,24.3266938 8.00829564,24.4497425 7.12340909,24.4497425 C6.49852291,24.4497425 5.89136364,24.38668 5.29897745,24.269784 C6.5325,28.2811658 10.1148862,31.2004924 14.3590909,31.282012 C11.0396593,33.9906175 6.8575,35.6040913 2.31340909,35.6040913 C1.53045455,35.6040913 0.759318182,35.557948 0,35.4625855 C4.29147709,38.3280782 9.38954545,40 14.8657953,40 C32.7068182,40 42.4612498,24.6127818 42.4612498,11.2697069 C42.4612498,10.8313465 42.4523862,10.3960625 42.4331818,9.96231636 C44.3285229,8.53956764 45.9727273,6.75997855 47.2727273,4.73583018" id="Fill-4"></path>
            </g>
        </g>
    </g>
</svg>