<svg width="1000" height="527" viewBox="0 0 1000 527" fill="none" xmlns="http://www.w3.org/2000/svg">
<path d="M1000 0H0V526.316H1000V0Z" fill="#B22234"/>
<path d="M0 60.7288H1000Z" fill="black"/>
<path d="M0 60.7288H1000" stroke="white" stroke-width="40"/>
<path d="M1000 141.7H0Z" fill="black"/>
<path d="M1000 141.7H0" stroke="white" stroke-width="40"/>
<path d="M0 222.672H1000Z" fill="black"/>
<path d="M0 222.672H1000" stroke="white" stroke-width="40"/>
<path d="M1000 303.644H0Z" fill="black"/>
<path d="M1000 303.644H0" stroke="white" stroke-width="40"/>
<path d="M0 384.615H1000Z" fill="black"/>
<path d="M0 384.615H1000" stroke="white" stroke-width="40"/>
<path d="M1000 465.587H0Z" fill="black"/>
<path d="M1000 465.587H0" stroke="white" stroke-width="40"/>
<path d="M400 0H0V283.401H400V0Z" fill="#3C3B6E"/>
<path d="M33.3334 12.1458L42.8522 41.4416L17.9316 23.3358H48.7351L23.8146 41.4416L33.3334 12.1458Z" fill="white"/>
<path d="M33.3334 68.8259L42.8522 98.1217L17.9316 80.0159H48.7351L23.8146 98.1217L33.3334 68.8259Z" fill="white"/>
<path d="M33.3334 125.506L42.8522 154.802L17.9316 136.696H48.7351L23.8146 154.802L33.3334 125.506Z" fill="white"/>
<path d="M33.3334 182.186L42.8522 211.482L17.9316 193.376H48.7351L23.8146 211.482L33.3334 182.186Z" fill="white"/>
<path d="M33.3334 238.866L42.8522 268.162L17.9316 250.056H48.7351L23.8146 268.162L33.3334 238.866Z" fill="white"/>
<path d="M66.6669 40.4858L76.1856 69.7817L51.2651 51.6758H82.0686L57.1481 69.7817L66.6669 40.4858Z" fill="white"/>
<path d="M66.6669 97.166L76.1856 126.462L51.2651 108.356H82.0686L57.1481 126.462L66.6669 97.166Z" fill="white"/>
<path d="M66.6669 153.846L76.1856 183.142L51.2651 165.036H82.0686L57.1481 183.142L66.6669 153.846Z" fill="white"/>
<path d="M66.6669 210.526L76.1856 239.822L51.2651 221.716H82.0686L57.1481 239.822L66.6669 210.526Z" fill="white"/>
<path d="M99.9999 12.1458L109.519 41.4416L84.5981 23.3358H115.402L90.4811 41.4416L99.9999 12.1458Z" fill="white"/>
<path d="M99.9999 68.8259L109.519 98.1217L84.5981 80.0159H115.402L90.4811 98.1217L99.9999 68.8259Z" fill="white"/>
<path d="M99.9999 125.506L109.519 154.802L84.5981 136.696H115.402L90.4811 154.802L99.9999 125.506Z" fill="white"/>
<path d="M99.9999 182.186L109.519 211.482L84.5981 193.376H115.402L90.4811 211.482L99.9999 182.186Z" fill="white"/>
<path d="M99.9999 238.866L109.519 268.162L84.5981 250.056H115.402L90.4811 268.162L99.9999 238.866Z" fill="white"/>
<path d="M133.333 40.4858L142.852 69.7817L117.932 51.6758H148.735L123.815 69.7817L133.333 40.4858Z" fill="white"/>
<path d="M133.333 97.166L142.852 126.462L117.932 108.356H148.735L123.815 126.462L133.333 97.166Z" fill="white"/>
<path d="M133.333 153.846L142.852 183.142L117.932 165.036H148.735L123.815 183.142L133.333 153.846Z" fill="white"/>
<path d="M133.333 210.526L142.852 239.822L117.932 221.716H148.735L123.815 239.822L133.333 210.526Z" fill="white"/>
<path d="M166.667 12.1458L176.186 41.4416L151.265 23.3358H182.069L157.148 41.4416L166.667 12.1458Z" fill="white"/>
<path d="M166.667 68.8259L176.186 98.1217L151.265 80.0159H182.069L157.148 98.1217L166.667 68.8259Z" fill="white"/>
<path d="M166.667 125.506L176.186 154.802L151.265 136.696H182.069L157.148 154.802L166.667 125.506Z" fill="white"/>
<path d="M166.667 182.186L176.186 211.482L151.265 193.376H182.069L157.148 211.482L166.667 182.186Z" fill="white"/>
<path d="M166.667 238.866L176.186 268.162L151.265 250.056H182.069L157.148 268.162L166.667 238.866Z" fill="white"/>
<path d="M200 40.4858L209.519 69.7817L184.599 51.6758H215.402L190.482 69.7817L200 40.4858Z" fill="white"/>
<path d="M200 97.166L209.519 126.462L184.599 108.356H215.402L190.482 126.462L200 97.166Z" fill="white"/>
<path d="M200 153.846L209.519 183.142L184.599 165.036H215.402L190.482 183.142L200 153.846Z" fill="white"/>
<path d="M200 210.526L209.519 239.822L184.599 221.716H215.402L190.482 239.822L200 210.526Z" fill="white"/>
<path d="M233.333 12.1458L242.852 41.4416L217.932 23.3358H248.735L223.815 41.4416L233.333 12.1458Z" fill="white"/>
<path d="M233.333 68.8259L242.852 98.1217L217.932 80.0159H248.735L223.815 98.1217L233.333 68.8259Z" fill="white"/>
<path d="M233.333 125.506L242.852 154.802L217.932 136.696H248.735L223.815 154.802L233.333 125.506Z" fill="white"/>
<path d="M233.333 182.186L242.852 211.482L217.932 193.376H248.735L223.815 211.482L233.333 182.186Z" fill="white"/>
<path d="M233.333 238.866L242.852 268.162L217.932 250.056H248.735L223.815 268.162L233.333 238.866Z" fill="white"/>
<path d="M266.667 40.4858L276.186 69.7817L251.265 51.6758H282.069L257.148 69.7817L266.667 40.4858Z" fill="white"/>
<path d="M266.667 97.166L276.186 126.462L251.265 108.356H282.069L257.148 126.462L266.667 97.166Z" fill="white"/>
<path d="M266.667 153.846L276.186 183.142L251.265 165.036H282.069L257.148 183.142L266.667 153.846Z" fill="white"/>
<path d="M266.667 210.526L276.186 239.822L251.265 221.716H282.069L257.148 239.822L266.667 210.526Z" fill="white"/>
<path d="M300 12.1458L309.519 41.4416L284.598 23.3358H315.402L290.481 41.4416L300 12.1458Z" fill="white"/>
<path d="M300 68.8259L309.519 98.1217L284.598 80.0159H315.402L290.481 98.1217L300 68.8259Z" fill="white"/>
<path d="M300 125.506L309.519 154.802L284.598 136.696H315.402L290.481 154.802L300 125.506Z" fill="white"/>
<path d="M300 182.186L309.519 211.482L284.598 193.376H315.402L290.481 211.482L300 182.186Z" fill="white"/>
<path d="M300 238.866L309.519 268.162L284.598 250.056H315.402L290.481 268.162L300 238.866Z" fill="white"/>
<path d="M333.333 40.4858L342.852 69.7817L317.932 51.6758H348.735L323.815 69.7817L333.333 40.4858Z" fill="white"/>
<path d="M333.333 97.166L342.852 126.462L317.932 108.356H348.735L323.815 126.462L333.333 97.166Z" fill="white"/>
<path d="M333.333 153.846L342.852 183.142L317.932 165.036H348.735L323.815 183.142L333.333 153.846Z" fill="white"/>
<path d="M333.333 210.526L342.852 239.822L317.932 221.716H348.735L323.815 239.822L333.333 210.526Z" fill="white"/>
<path d="M366.667 12.1458L376.186 41.4416L351.265 23.3358H382.069L357.148 41.4416L366.667 12.1458Z" fill="white"/>
<path d="M366.667 68.8259L376.186 98.1217L351.265 80.0159H382.069L357.148 98.1217L366.667 68.8259Z" fill="white"/>
<path d="M366.667 125.506L376.186 154.802L351.265 136.696H382.069L357.148 154.802L366.667 125.506Z" fill="white"/>
<path d="M366.667 182.186L376.186 211.482L351.265 193.376H382.069L357.148 211.482L366.667 182.186Z" fill="white"/>
<path d="M366.667 238.866L376.186 268.162L351.265 250.056H382.069L357.148 268.162L366.667 238.866Z" fill="white"/>
</svg>
