<?xml version="1.0" encoding="UTF-8"?>
<svg width="1000px" height="500px" viewBox="0 0 1000 500" version="1.1" xmlns="http://www.w3.org/2000/svg" xmlns:xlink="http://www.w3.org/1999/xlink">
    <!-- Generator: Sketch 51.1 (57501) - http://www.bohemiancoding.com/sketch -->
    <title>Artboard 6</title>
    <desc>Created with Sketch.</desc>
    <defs></defs>
    <g id="Artboard-6" stroke="none" stroke-width="1" fill="none" fill-rule="evenodd">
        <g id="Flag_of_Nigeria" fill-rule="nonzero">
            <rect id="Rectangle-path" fill="#008751" x="0" y="0" width="1000" height="500"></rect>
            <rect id="Rectangle-path" fill="#FFFFFF" x="333.333333" y="0" width="333.333333" height="500"></rect>
        </g>
        <g id="Flag_of_Ghana" transform="translate(0.000000, -83.000000)" fill-rule="nonzero">
            <rect id="Rectangle-path" fill="#006B3F" x="0" y="0" width="1000" height="666.666667"></rect>
            <rect id="Rectangle-path" fill="#FCD116" x="0" y="0" width="1000" height="444.444444"></rect>
            <rect id="Rectangle-path" fill="#CE1126" x="0" y="0" width="1000" height="222.222222"></rect>
            <polygon id="Shape" fill="#000000" points="500 222.222222 572.204444 444.444444 383.171111 307.104444 616.828889 307.104444 427.795556 444.444444"></polygon>
        </g>
        <g id="Flag_of_Senegal" transform="translate(0.000000, -126.000000)" fill-rule="nonzero">
            <rect id="Rectangle-path" fill="#00853F" x="0" y="0" width="1000" height="666.666667"></rect>
            <rect id="Rectangle-path" fill="#FDEF42" x="333.333333" y="0" width="666.666667" height="666.666667"></rect>
            <rect id="Rectangle-path" fill="#E31B23" x="666.666667" y="0" width="333.333333" height="666.666667"></rect>
            <g id="Group" transform="translate(377.777778, 222.222222)" fill="#00853F">
                <g id="c" transform="translate(68.888889, 0.000000)">
                    <polygon id="t" transform="translate(62.583959, 61.420279) rotate(18.000000) translate(-62.583959, -61.420279) " points="34.8061813 5.86472297 34.8061813 116.975834 90.3617369 116.975834"></polygon>
                    <g id="t-link" transform="translate(43.888889, 61.666667) scale(-1, 1) translate(-43.888889, -61.666667) ">
                        <polygon id="t" transform="translate(43.695070, 61.420279) rotate(18.000000) translate(-43.695070, -61.420279) " points="15.9172924 5.86472297 15.9172924 116.975834 71.472848 116.975834"></polygon>
                    </g>
                </g>
                <g id="c-link" transform="translate(169.246683, 95.831938) rotate(72.000000) translate(-169.246683, -95.831938) translate(115.913350, 34.165271)">
                    <g id="c">
                        <polygon id="t" transform="translate(62.583959, 61.420279) rotate(18.000000) translate(-62.583959, -61.420279) " points="34.8061813 5.86472297 34.8061813 116.975834 90.3617369 116.975834"></polygon>
                        <g id="t-link" transform="translate(43.888889, 61.666667) scale(-1, 1) translate(-43.888889, -61.666667) ">
                            <polygon id="t" transform="translate(43.695070, 61.420279) rotate(18.000000) translate(-43.695070, -61.420279) " points="15.9172924 5.86472297 15.9172924 116.975834 71.472848 116.975834"></polygon>
                        </g>
                    </g>
                </g>
                <g id="c-link" transform="translate(151.284937, 151.112507) rotate(144.000000) translate(-151.284937, -151.112507) translate(97.951604, 89.445840)">
                    <g id="c">
                        <polygon id="t" transform="translate(62.583959, 61.420279) rotate(18.000000) translate(-62.583959, -61.420279) " points="34.8061813 5.86472297 34.8061813 116.975834 90.3617369 116.975834"></polygon>
                        <g id="t-link" transform="translate(43.888889, 61.666667) scale(-1, 1) translate(-43.888889, -61.666667) ">
                            <polygon id="t" transform="translate(43.695070, 61.420279) rotate(18.000000) translate(-43.695070, -61.420279) " points="15.9172924 5.86472297 15.9172924 116.975834 71.472848 116.975834"></polygon>
                        </g>
                    </g>
                </g>
                <g id="c-link" transform="translate(93.159507, 151.112507) rotate(-144.000000) translate(-93.159507, -151.112507) translate(39.826174, 89.445840)">
                    <g id="c">
                        <polygon id="t" transform="translate(62.583959, 61.420279) rotate(18.000000) translate(-62.583959, -61.420279) " points="34.8061813 5.86472297 34.8061813 116.975834 90.3617369 116.975834"></polygon>
                        <g id="t-link" transform="translate(43.888889, 61.666667) scale(-1, 1) translate(-43.888889, -61.666667) ">
                            <polygon id="t" transform="translate(43.695070, 61.420279) rotate(18.000000) translate(-43.695070, -61.420279) " points="15.9172924 5.86472297 15.9172924 116.975834 71.472848 116.975834"></polygon>
                        </g>
                    </g>
                </g>
                <g id="c-link" transform="translate(75.197761, 95.831938) rotate(-72.000000) translate(-75.197761, -95.831938) translate(21.864428, 34.165271)">
                    <g id="c">
                        <polygon id="t" transform="translate(62.583959, 61.420279) rotate(18.000000) translate(-62.583959, -61.420279) " points="34.8061813 5.86472297 34.8061813 116.975834 90.3617369 116.975834"></polygon>
                        <g id="t-link" transform="translate(43.888889, 61.666667) scale(-1, 1) translate(-43.888889, -61.666667) ">
                            <polygon id="t" transform="translate(43.695070, 61.420279) rotate(18.000000) translate(-43.695070, -61.420279) " points="15.9172924 5.86472297 15.9172924 116.975834 71.472848 116.975834"></polygon>
                        </g>
                    </g>
                </g>
            </g>
        </g>
        <g id="Flag_of_Cameroon" transform="translate(0.000000, -83.000000)" fill-rule="nonzero">
            <rect id="Rectangle-path" fill="#007A5E" x="0" y="0" width="1000" height="666.666667"></rect>
            <rect id="Rectangle-path" fill="#CE1126" x="333.333333" y="0" width="666.666667" height="666.666667"></rect>
            <rect id="Rectangle-path" fill="#FCD116" x="666.666667" y="0" width="333.333333" height="666.666667"></rect>
            <g id="Group" transform="translate(400.000000, 244.444444)" fill="#FCD116">
                <g id="c" transform="translate(55.555556, 0.000000)">
                    <polygon id="t" transform="translate(51.844945, 49.136223) rotate(18.000000) translate(-51.844945, -49.136223) " points="29.6227228 4.69177838 29.6227228 93.5806673 74.0671673 93.5806673"></polygon>
                    <g id="t-link" transform="translate(38.888889, 50.000000) scale(-1, 1) translate(-38.888889, -50.000000) ">
                        <polygon id="t" transform="translate(40.733834, 49.136223) rotate(18.000000) translate(-40.733834, -49.136223) " points="18.5116117 4.69177838 18.5116117 93.5806673 62.9560562 93.5806673"></polygon>
                    </g>
                </g>
                <g id="c-link" transform="translate(136.985531, 76.871561) rotate(72.000000) translate(-136.985531, -76.871561) translate(92.541087, 26.871561)">
                    <g id="c">
                        <polygon id="t" transform="translate(51.844945, 49.136223) rotate(18.000000) translate(-51.844945, -49.136223) " points="29.6227228 4.69177838 29.6227228 93.5806673 74.0671673 93.5806673"></polygon>
                        <g id="t-link" transform="translate(38.888889, 50.000000) scale(-1, 1) translate(-38.888889, -50.000000) ">
                            <polygon id="t" transform="translate(40.733834, 49.136223) rotate(18.000000) translate(-40.733834, -49.136223) " points="18.5116117 4.69177838 18.5116117 93.5806673 62.9560562 93.5806673"></polygon>
                        </g>
                    </g>
                </g>
                <g id="c-link" transform="translate(122.858315, 120.350661) rotate(144.000000) translate(-122.858315, -120.350661) translate(78.413871, 70.350661)">
                    <g id="c">
                        <polygon id="t" transform="translate(51.844945, 49.136223) rotate(18.000000) translate(-51.844945, -49.136223) " points="29.6227228 4.69177838 29.6227228 93.5806673 74.0671673 93.5806673"></polygon>
                        <g id="t-link" transform="translate(38.888889, 50.000000) scale(-1, 1) translate(-38.888889, -50.000000) ">
                            <polygon id="t" transform="translate(40.733834, 49.136223) rotate(18.000000) translate(-40.733834, -49.136223) " points="18.5116117 4.69177838 18.5116117 93.5806673 62.9560562 93.5806673"></polygon>
                        </g>
                    </g>
                </g>
                <g id="c-link" transform="translate(77.141685, 120.350661) rotate(-144.000000) translate(-77.141685, -120.350661) translate(32.697240, 70.350661)">
                    <g id="c">
                        <polygon id="t" transform="translate(51.844945, 49.136223) rotate(18.000000) translate(-51.844945, -49.136223) " points="29.6227228 4.69177838 29.6227228 93.5806673 74.0671673 93.5806673"></polygon>
                        <g id="t-link" transform="translate(38.888889, 50.000000) scale(-1, 1) translate(-38.888889, -50.000000) ">
                            <polygon id="t" transform="translate(40.733834, 49.136223) rotate(18.000000) translate(-40.733834, -49.136223) " points="18.5116117 4.69177838 18.5116117 93.5806673 62.9560562 93.5806673"></polygon>
                        </g>
                    </g>
                </g>
                <g id="c-link" transform="translate(63.014469, 76.871561) rotate(-72.000000) translate(-63.014469, -76.871561) translate(18.570024, 26.871561)">
                    <g id="c">
                        <polygon id="t" transform="translate(51.844945, 49.136223) rotate(18.000000) translate(-51.844945, -49.136223) " points="29.6227228 4.69177838 29.6227228 93.5806673 74.0671673 93.5806673"></polygon>
                        <g id="t-link" transform="translate(38.888889, 50.000000) scale(-1, 1) translate(-38.888889, -50.000000) ">
                            <polygon id="t" transform="translate(40.733834, 49.136223) rotate(18.000000) translate(-40.733834, -49.136223) " points="18.5116117 4.69177838 18.5116117 93.5806673 62.9560562 93.5806673"></polygon>
                        </g>
                    </g>
                </g>
            </g>
        </g>
        <g id="Flag_of_Chad" transform="translate(0.000000, -83.000000)" fill-rule="nonzero">
            <rect id="Rectangle-path" fill="#C60C30" x="0" y="0" width="1000" height="666.666667"></rect>
            <rect id="Rectangle-path" fill="#FECB00" x="0" y="0" width="666.666667" height="666.666667"></rect>
            <rect id="Rectangle-path" fill="#002664" x="0" y="0" width="333.333333" height="666.666667"></rect>
        </g>
        <g id="Flag_of_France" transform="translate(0.000000, -83.000000)" fill-rule="nonzero">
            <rect id="Rectangle-path" fill="#ED2939" x="0" y="0" width="1000" height="666.666667"></rect>
            <rect id="Rectangle-path" fill="#FFFFFF" x="0" y="0" width="666.666667" height="666.666667"></rect>
            <rect id="Rectangle-path" fill="#002395" x="0" y="0" width="333.333333" height="666.666667"></rect>
        </g>
        <g id="Flag_of_the_United_States" transform="translate(0.000000, -13.000000)" fill-rule="nonzero">
            <rect id="Rectangle-path" fill="#B22234" x="0" y="0" width="1000" height="526.315789"></rect>
            <path d="M0,60.7287449 L1000,60.7287449" id="Path" stroke="#FFFFFF" stroke-width="40" fill="#000000"></path>
            <path d="M1000,141.700405 L0,141.700405" id="Path" stroke="#FFFFFF" stroke-width="40" fill="#000000"></path>
            <path d="M0,222.672065 L1000,222.672065" id="Path" stroke="#FFFFFF" stroke-width="40" fill="#000000"></path>
            <path d="M1000,303.643725 L0,303.643725" id="Path" stroke="#FFFFFF" stroke-width="40" fill="#000000"></path>
            <path d="M0,384.615385 L1000,384.615385" id="Path" stroke="#FFFFFF" stroke-width="40" fill="#000000"></path>
            <path d="M1000,465.587045 L0,465.587045" id="Path" stroke="#FFFFFF" stroke-width="40" fill="#000000"></path>
            <rect id="Rectangle-path" fill="#3C3B6E" x="0" y="0" width="400" height="283.40081"></rect>
            <g id="Group" transform="translate(17.813765, 12.145749)" fill="#FFFFFF">
                <g id="s18">
                    <g id="s9">
                        <g id="s5">
                            <g id="s4">
                                <polygon id="s" points="15.5195682 0 25.0383576 29.2958217 0.117843185 11.1900082 30.9212931 11.1900082 6.00077868 29.2958217"></polygon>
                                <g id="s-link" transform="translate(0.000000, 56.680162)">
                                    <polygon id="s" points="15.5195682 0 25.0383576 29.2958217 0.117843185 11.1900082 30.9212931 11.1900082 6.00077868 29.2958217"></polygon>
                                </g>
                                <g id="s-link" transform="translate(0.000000, 113.360324)">
                                    <polygon id="s" points="15.5195682 0 25.0383576 29.2958217 0.117843185 11.1900082 30.9212931 11.1900082 6.00077868 29.2958217"></polygon>
                                </g>
                                <g id="s-link" transform="translate(0.000000, 170.040486)">
                                    <polygon id="s" points="15.5195682 0 25.0383576 29.2958217 0.117843185 11.1900082 30.9212931 11.1900082 6.00077868 29.2958217"></polygon>
                                </g>
                            </g>
                            <g id="s-link" transform="translate(0.000000, 226.720648)">
                                <polygon id="s" points="15.5195682 0 25.0383576 29.2958217 0.117843185 11.1900082 30.9212931 11.1900082 6.00077868 29.2958217"></polygon>
                            </g>
                        </g>
                        <g id="s4-link" transform="translate(33.333333, 28.340081)">
                            <g id="s4">
                                <polygon id="s" points="15.5195682 0 25.0383576 29.2958217 0.117843185 11.1900082 30.9212931 11.1900082 6.00077868 29.2958217"></polygon>
                                <g id="s-link" transform="translate(0.000000, 56.680162)">
                                    <polygon id="s" points="15.5195682 0 25.0383576 29.2958217 0.117843185 11.1900082 30.9212931 11.1900082 6.00077868 29.2958217"></polygon>
                                </g>
                                <g id="s-link" transform="translate(0.000000, 113.360324)">
                                    <polygon id="s" points="15.5195682 0 25.0383576 29.2958217 0.117843185 11.1900082 30.9212931 11.1900082 6.00077868 29.2958217"></polygon>
                                </g>
                                <g id="s-link" transform="translate(0.000000, 170.040486)">
                                    <polygon id="s" points="15.5195682 0 25.0383576 29.2958217 0.117843185 11.1900082 30.9212931 11.1900082 6.00077868 29.2958217"></polygon>
                                </g>
                            </g>
                        </g>
                    </g>
                    <g id="s9-link" transform="translate(66.666667, 0.000000)">
                        <g id="s9">
                            <g id="s5">
                                <g id="s4">
                                    <polygon id="s" points="15.5195682 0 25.0383576 29.2958217 0.117843185 11.1900082 30.9212931 11.1900082 6.00077868 29.2958217"></polygon>
                                    <g id="s-link" transform="translate(0.000000, 56.680162)">
                                        <polygon id="s" points="15.5195682 0 25.0383576 29.2958217 0.117843185 11.1900082 30.9212931 11.1900082 6.00077868 29.2958217"></polygon>
                                    </g>
                                    <g id="s-link" transform="translate(0.000000, 113.360324)">
                                        <polygon id="s" points="15.5195682 0 25.0383576 29.2958217 0.117843185 11.1900082 30.9212931 11.1900082 6.00077868 29.2958217"></polygon>
                                    </g>
                                    <g id="s-link" transform="translate(0.000000, 170.040486)">
                                        <polygon id="s" points="15.5195682 0 25.0383576 29.2958217 0.117843185 11.1900082 30.9212931 11.1900082 6.00077868 29.2958217"></polygon>
                                    </g>
                                </g>
                                <g id="s-link" transform="translate(0.000000, 226.720648)">
                                    <polygon id="s" points="15.5195682 0 25.0383576 29.2958217 0.117843185 11.1900082 30.9212931 11.1900082 6.00077868 29.2958217"></polygon>
                                </g>
                            </g>
                            <g id="s4-link" transform="translate(33.333333, 28.340081)">
                                <g id="s4">
                                    <polygon id="s" points="15.5195682 0 25.0383576 29.2958217 0.117843185 11.1900082 30.9212931 11.1900082 6.00077868 29.2958217"></polygon>
                                    <g id="s-link" transform="translate(0.000000, 56.680162)">
                                        <polygon id="s" points="15.5195682 0 25.0383576 29.2958217 0.117843185 11.1900082 30.9212931 11.1900082 6.00077868 29.2958217"></polygon>
                                    </g>
                                    <g id="s-link" transform="translate(0.000000, 113.360324)">
                                        <polygon id="s" points="15.5195682 0 25.0383576 29.2958217 0.117843185 11.1900082 30.9212931 11.1900082 6.00077868 29.2958217"></polygon>
                                    </g>
                                    <g id="s-link" transform="translate(0.000000, 170.040486)">
                                        <polygon id="s" points="15.5195682 0 25.0383576 29.2958217 0.117843185 11.1900082 30.9212931 11.1900082 6.00077868 29.2958217"></polygon>
                                    </g>
                                </g>
                            </g>
                        </g>
                    </g>
                </g>
                <g id="s18-link" transform="translate(133.333333, 0.000000)">
                    <g id="s18">
                        <g id="s9">
                            <g id="s5">
                                <g id="s4">
                                    <polygon id="s" points="15.5195682 0 25.0383576 29.2958217 0.117843185 11.1900082 30.9212931 11.1900082 6.00077868 29.2958217"></polygon>
                                    <g id="s-link" transform="translate(0.000000, 56.680162)">
                                        <polygon id="s" points="15.5195682 0 25.0383576 29.2958217 0.117843185 11.1900082 30.9212931 11.1900082 6.00077868 29.2958217"></polygon>
                                    </g>
                                    <g id="s-link" transform="translate(0.000000, 113.360324)">
                                        <polygon id="s" points="15.5195682 0 25.0383576 29.2958217 0.117843185 11.1900082 30.9212931 11.1900082 6.00077868 29.2958217"></polygon>
                                    </g>
                                    <g id="s-link" transform="translate(0.000000, 170.040486)">
                                        <polygon id="s" points="15.5195682 0 25.0383576 29.2958217 0.117843185 11.1900082 30.9212931 11.1900082 6.00077868 29.2958217"></polygon>
                                    </g>
                                </g>
                                <g id="s-link" transform="translate(0.000000, 226.720648)">
                                    <polygon id="s" points="15.5195682 0 25.0383576 29.2958217 0.117843185 11.1900082 30.9212931 11.1900082 6.00077868 29.2958217"></polygon>
                                </g>
                            </g>
                            <g id="s4-link" transform="translate(33.333333, 28.340081)">
                                <g id="s4">
                                    <polygon id="s" points="15.5195682 0 25.0383576 29.2958217 0.117843185 11.1900082 30.9212931 11.1900082 6.00077868 29.2958217"></polygon>
                                    <g id="s-link" transform="translate(0.000000, 56.680162)">
                                        <polygon id="s" points="15.5195682 0 25.0383576 29.2958217 0.117843185 11.1900082 30.9212931 11.1900082 6.00077868 29.2958217"></polygon>
                                    </g>
                                    <g id="s-link" transform="translate(0.000000, 113.360324)">
                                        <polygon id="s" points="15.5195682 0 25.0383576 29.2958217 0.117843185 11.1900082 30.9212931 11.1900082 6.00077868 29.2958217"></polygon>
                                    </g>
                                    <g id="s-link" transform="translate(0.000000, 170.040486)">
                                        <polygon id="s" points="15.5195682 0 25.0383576 29.2958217 0.117843185 11.1900082 30.9212931 11.1900082 6.00077868 29.2958217"></polygon>
                                    </g>
                                </g>
                            </g>
                        </g>
                        <g id="s9-link" transform="translate(66.666667, 0.000000)">
                            <g id="s9">
                                <g id="s5">
                                    <g id="s4">
                                        <polygon id="s" points="15.5195682 0 25.0383576 29.2958217 0.117843185 11.1900082 30.9212931 11.1900082 6.00077868 29.2958217"></polygon>
                                        <g id="s-link" transform="translate(0.000000, 56.680162)">
                                            <polygon id="s" points="15.5195682 0 25.0383576 29.2958217 0.117843185 11.1900082 30.9212931 11.1900082 6.00077868 29.2958217"></polygon>
                                        </g>
                                        <g id="s-link" transform="translate(0.000000, 113.360324)">
                                            <polygon id="s" points="15.5195682 0 25.0383576 29.2958217 0.117843185 11.1900082 30.9212931 11.1900082 6.00077868 29.2958217"></polygon>
                                        </g>
                                        <g id="s-link" transform="translate(0.000000, 170.040486)">
                                            <polygon id="s" points="15.5195682 0 25.0383576 29.2958217 0.117843185 11.1900082 30.9212931 11.1900082 6.00077868 29.2958217"></polygon>
                                        </g>
                                    </g>
                                    <g id="s-link" transform="translate(0.000000, 226.720648)">
                                        <polygon id="s" points="15.5195682 0 25.0383576 29.2958217 0.117843185 11.1900082 30.9212931 11.1900082 6.00077868 29.2958217"></polygon>
                                    </g>
                                </g>
                                <g id="s4-link" transform="translate(33.333333, 28.340081)">
                                    <g id="s4">
                                        <polygon id="s" points="15.5195682 0 25.0383576 29.2958217 0.117843185 11.1900082 30.9212931 11.1900082 6.00077868 29.2958217"></polygon>
                                        <g id="s-link" transform="translate(0.000000, 56.680162)">
                                            <polygon id="s" points="15.5195682 0 25.0383576 29.2958217 0.117843185 11.1900082 30.9212931 11.1900082 6.00077868 29.2958217"></polygon>
                                        </g>
                                        <g id="s-link" transform="translate(0.000000, 113.360324)">
                                            <polygon id="s" points="15.5195682 0 25.0383576 29.2958217 0.117843185 11.1900082 30.9212931 11.1900082 6.00077868 29.2958217"></polygon>
                                        </g>
                                        <g id="s-link" transform="translate(0.000000, 170.040486)">
                                            <polygon id="s" points="15.5195682 0 25.0383576 29.2958217 0.117843185 11.1900082 30.9212931 11.1900082 6.00077868 29.2958217"></polygon>
                                        </g>
                                    </g>
                                </g>
                            </g>
                        </g>
                    </g>
                </g>
                <g id="s9-link" transform="translate(266.666667, 0.000000)">
                    <g id="s9">
                        <g id="s5">
                            <g id="s4">
                                <polygon id="s" points="15.5195682 0 25.0383576 29.2958217 0.117843185 11.1900082 30.9212931 11.1900082 6.00077868 29.2958217"></polygon>
                                <g id="s-link" transform="translate(0.000000, 56.680162)">
                                    <polygon id="s" points="15.5195682 0 25.0383576 29.2958217 0.117843185 11.1900082 30.9212931 11.1900082 6.00077868 29.2958217"></polygon>
                                </g>
                                <g id="s-link" transform="translate(0.000000, 113.360324)">
                                    <polygon id="s" points="15.5195682 0 25.0383576 29.2958217 0.117843185 11.1900082 30.9212931 11.1900082 6.00077868 29.2958217"></polygon>
                                </g>
                                <g id="s-link" transform="translate(0.000000, 170.040486)">
                                    <polygon id="s" points="15.5195682 0 25.0383576 29.2958217 0.117843185 11.1900082 30.9212931 11.1900082 6.00077868 29.2958217"></polygon>
                                </g>
                            </g>
                            <g id="s-link" transform="translate(0.000000, 226.720648)">
                                <polygon id="s" points="15.5195682 0 25.0383576 29.2958217 0.117843185 11.1900082 30.9212931 11.1900082 6.00077868 29.2958217"></polygon>
                            </g>
                        </g>
                        <g id="s4-link" transform="translate(33.333333, 28.340081)">
                            <g id="s4">
                                <polygon id="s" points="15.5195682 0 25.0383576 29.2958217 0.117843185 11.1900082 30.9212931 11.1900082 6.00077868 29.2958217"></polygon>
                                <g id="s-link" transform="translate(0.000000, 56.680162)">
                                    <polygon id="s" points="15.5195682 0 25.0383576 29.2958217 0.117843185 11.1900082 30.9212931 11.1900082 6.00077868 29.2958217"></polygon>
                                </g>
                                <g id="s-link" transform="translate(0.000000, 113.360324)">
                                    <polygon id="s" points="15.5195682 0 25.0383576 29.2958217 0.117843185 11.1900082 30.9212931 11.1900082 6.00077868 29.2958217"></polygon>
                                </g>
                                <g id="s-link" transform="translate(0.000000, 170.040486)">
                                    <polygon id="s" points="15.5195682 0 25.0383576 29.2958217 0.117843185 11.1900082 30.9212931 11.1900082 6.00077868 29.2958217"></polygon>
                                </g>
                            </g>
                        </g>
                    </g>
                </g>
                <g id="s5-link" transform="translate(333.333333, 0.000000)">
                    <g id="s5">
                        <g id="s4">
                            <polygon id="s" points="15.5195682 0 25.0383576 29.2958217 0.117843185 11.1900082 30.9212931 11.1900082 6.00077868 29.2958217"></polygon>
                            <g id="s-link" transform="translate(0.000000, 56.680162)">
                                <polygon id="s" points="15.5195682 0 25.0383576 29.2958217 0.117843185 11.1900082 30.9212931 11.1900082 6.00077868 29.2958217"></polygon>
                            </g>
                            <g id="s-link" transform="translate(0.000000, 113.360324)">
                                <polygon id="s" points="15.5195682 0 25.0383576 29.2958217 0.117843185 11.1900082 30.9212931 11.1900082 6.00077868 29.2958217"></polygon>
                            </g>
                            <g id="s-link" transform="translate(0.000000, 170.040486)">
                                <polygon id="s" points="15.5195682 0 25.0383576 29.2958217 0.117843185 11.1900082 30.9212931 11.1900082 6.00077868 29.2958217"></polygon>
                            </g>
                        </g>
                        <g id="s-link" transform="translate(0.000000, 226.720648)">
                            <polygon id="s" points="15.5195682 0 25.0383576 29.2958217 0.117843185 11.1900082 30.9212931 11.1900082 6.00077868 29.2958217"></polygon>
                        </g>
                    </g>
                </g>
            </g>
        </g>
        <g id="Flag_of_Kenya" transform="translate(0.000000, -83.000000)" fill-rule="nonzero">
            <rect id="Rectangle-path" fill="#FFFFFF" x="0" y="0" width="1000" height="666.666667"></rect>
            <rect id="Rectangle-path" fill="#000000" x="0" y="0" width="1000" height="200"></rect>
            <rect id="Rectangle-path" fill="#BB0000" x="0" y="233.333333" width="1000" height="200"></rect>
            <rect id="Rectangle-path" fill="#006600" x="0" y="466.666667" width="1000" height="200"></rect>
            <g id="Group" transform="translate(354.166667, 91.666667)">
                <g id="spear" transform="translate(16.666667, 0.000000)">
                    <g id="spearshape-link" fill="#000000">
                        <path d="M134.622504,475.185117 L142.955838,475.185117 L142.955838,85.9116756 C151.289171,77.5783423 151.289171,65.0783423 151.289171,52.5783423 C151.289171,44.245009 151.289171,10.9116756 138.789171,-25.1851166 C126.289171,10.9116756 126.289171,44.245009 126.289171,52.5783423 C126.289171,65.0783423 126.289171,77.5783423 134.622504,85.9116756 L134.622504,475.185117 Z" id="spearshape" transform="translate(138.789171, 225.000000) rotate(30.000000) translate(-138.789171, -225.000000) "></path>
                    </g>
                    <g id="spearshape-link" fill="#FFFFFF">
                        <path d="M134.622504,475.185117 L142.955838,475.185117 L142.955838,85.9116756 C151.289171,77.5783423 151.289171,65.0783423 151.289171,52.5783423 C151.289171,44.245009 151.289171,10.9116756 138.789171,-25.1851166 C126.289171,10.9116756 126.289171,44.245009 126.289171,52.5783423 C126.289171,65.0783423 126.289171,77.5783423 134.622504,85.9116756 L134.622504,475.185117 Z" id="spearshape" transform="translate(138.789171, 225.000000) rotate(30.000000) translate(-138.789171, -225.000000) "></path>
                    </g>
                </g>
                <g id="spear-link" transform="translate(137.500000, 225.000000) scale(-1, 1) translate(-137.500000, -225.000000) ">
                    <g id="spear">
                        <g id="spearshape-link" fill="#000000">
                            <path d="M134.622504,475.185117 L142.955838,475.185117 L142.955838,85.9116756 C151.289171,77.5783423 151.289171,65.0783423 151.289171,52.5783423 C151.289171,44.245009 151.289171,10.9116756 138.789171,-25.1851166 C126.289171,10.9116756 126.289171,44.245009 126.289171,52.5783423 C126.289171,65.0783423 126.289171,77.5783423 134.622504,85.9116756 L134.622504,475.185117 Z" id="spearshape" transform="translate(138.789171, 225.000000) rotate(30.000000) translate(-138.789171, -225.000000) "></path>
                        </g>
                        <g id="spearshape-link" fill="#FFFFFF">
                            <path d="M134.622504,475.185117 L142.955838,475.185117 L142.955838,85.9116756 C151.289171,77.5783423 151.289171,65.0783423 151.289171,52.5783423 C151.289171,44.245009 151.289171,10.9116756 138.789171,-25.1851166 C126.289171,10.9116756 126.289171,44.245009 126.289171,52.5783423 C126.289171,65.0783423 126.289171,77.5783423 134.622504,85.9116756 L134.622504,475.185117 Z" id="spearshape" transform="translate(138.789171, 225.000000) rotate(30.000000) translate(-138.789171, -225.000000) "></path>
                        </g>
                    </g>
                </g>
                <path d="M66.6666667,341.666667 C79.1666667,375 120.833333,441.666667 145.833333,441.666667 C170.833333,441.666667 212.5,375 225,341.666667 L225,141.666667 C212.5,108.333333 170.833333,41.6666667 145.833333,41.6666667 C120.833333,41.6666667 79.1666667,108.333333 66.6666667,141.666667 L66.6666667,341.666667 Z" id="Shape" fill="#BB0000"></path>
                <path d="M225,341.666667 C237.5,308.333333 245.833333,275 245.833333,241.666667 C245.833333,208.333333 237.5,175 225,141.666667 C212.5,175 204.166667,208.333333 204.166667,241.666667 C204.166667,275 212.5,308.333333 225,341.666667 Z" id="deco_r" fill="#000000"></path>
                <g id="deco_r-link" transform="translate(66.666667, 241.666667) scale(-1, 1) translate(-66.666667, -241.666667) translate(45.833333, 141.666667)" fill="#000000">
                    <path d="M20.8333333,200 C33.3333333,166.666667 41.6666667,133.333333 41.6666667,100 C41.6666667,66.6666667 33.3333333,33.3333333 20.8333333,0 C8.33333333,33.3333333 0,66.6666667 0,100 C0,133.333333 8.33333333,166.666667 20.8333333,200 Z" id="deco_r"></path>
                </g>
                <g transform="translate(125.000000, 41.666667)" fill="#FFFFFF">
                    <ellipse id="Oval" cx="20.8333333" cy="200" rx="16.6666667" ry="25"></ellipse>
                    <path d="M25,224.375 C25,224.375 41.6666667,257.708333 41.6666667,311.875 C41.6666667,366.041667 25,399.375 25,399.375 L25,224.375 Z" id="deco_br"></path>
                    <g id="deco_br-link" transform="translate(8.333333, 89.583333) rotate(180.000000) translate(-8.333333, -89.583333) ">
                        <path d="M0,3.54166667 C0,3.54166667 16.6666667,36.875 16.6666667,91.0416667 C16.6666667,145.208333 0,178.541667 0,178.541667 L0,3.54166667 Z" id="deco_br"></path>
                    </g>
                    <g id="deco_br-link" transform="translate(8.333333, 310.416667) scale(-1, 1) translate(-8.333333, -310.416667) translate(0.000000, 220.833333)">
                        <path d="M0,3.54166667 C0,3.54166667 16.6666667,36.875 16.6666667,91.0416667 C16.6666667,145.208333 0,178.541667 0,178.541667 L0,3.54166667 Z" id="deco_br"></path>
                    </g>
                    <g id="deco_br-link" transform="translate(33.333333, 89.583333) scale(-1, 1) rotate(-180.000000) translate(-33.333333, -89.583333) translate(25.000000, 0.000000)">
                        <path d="M0,3.54166667 C0,3.54166667 16.6666667,36.875 16.6666667,91.0416667 C16.6666667,145.208333 0,178.541667 0,178.541667 L0,3.54166667 Z" id="deco_br"></path>
                    </g>
                </g>
            </g>
        </g>
        <g id="Flag_of_Sierra_Leone" transform="translate(0.000000, -83.000000)" fill-rule="nonzero">
            <rect id="Rectangle-path" fill="#0072C6" x="0" y="0" width="1000" height="666.666667"></rect>
            <rect id="Rectangle-path" fill="#FFFFFF" x="0" y="0" width="1000" height="444.444444"></rect>
            <rect id="Rectangle-path" fill="#1EB53A" x="0" y="0" width="1000" height="222.222222"></rect>
        </g>
        <g id="Flag_of_Zambia" fill-rule="nonzero">
            <rect id="Rectangle-path" fill="#198A00" x="0" y="0" width="1000" height="666.666667"></rect>
            <rect id="Rectangle-path" fill="#EF7D00" x="880.952381" y="238.095238" width="119.047619" height="428.571429"></rect>
            <rect id="Rectangle-path" fill="#000000" x="761.904762" y="238.095238" width="119.047619" height="428.571429"></rect>
            <rect id="Rectangle-path" fill="#DE2010" x="642.857143" y="238.095238" width="119.047619" height="428.571429"></rect>
            <g id="Group" stroke-linecap="round" stroke-linejoin="round" transform="translate(663.809524, 56.666667)" fill="#EF7D00" stroke="#000000" stroke-width="2.25">
                <path d="M248.773571,23.4925714 C248.773571,23.4925714 289.726905,7.44214286 293.694905,4.13261905 C295.499476,6.1182381 277.277571,26.305619 241.917905,33.7517667 C274.030143,26.802 301.452905,4.95990476 307.045571,5.62180952 C308.669333,5.9527619 308.307667,26.9674286 234.701476,45.1691286 C285.576238,32.9242714 315.163381,10.4204286 314.802619,12.9024762 C315.163381,13.3988571 309.751524,30.6077238 265.190857,44.0107762 C277.639238,41.362881 311.375286,22.4997143 311.014524,26.1401429 C312.096714,27.6293333 278.360714,67.3418143 217.38281,54.4357238 C266.093143,66.0183762 297.663857,38.0538762 302.174333,38.5503048 C303.076619,38.7157571 293.153381,63.0397857 231.815619,64.529081 C261.222857,61.7163476 252.742524,64.3632667 252.742524,64.3632667 C252.742524,64.3632667 235.422905,76.7734571 214.496048,68.3352476 C230.913333,72.4722762 232.716952,72.6372762 233.077762,73.960719 C231.995524,75.615019 218.464952,78.0977429 205.475952,71.6438476 C215.938952,75.615019 225.320619,76.2775905 225.500571,77.7668857 C225.320619,78.2627476 218.645762,81.7380571 212.692381,79.256181 C206.738952,76.7734571 151.894381,45.8310143 151.894381,45.8310143 L245.34619,22.3342857 L248.773571,23.4925714 Z" id="Shape"></path>
                <path d="M138.910762,107.192976 C130.693143,107.192976 130.466381,113.900133 130.466381,113.900133 C130.466381,113.900133 129.788143,114.384457 130.240571,117.635338 C131.59719,115.421629 132.276381,114.730176 132.276381,114.730176 C133.181333,114.868814 136.950571,115.905948 142.906667,111.618743 C137.477714,116.804486 140.720667,118.740962 140.720667,118.740962 C140.720667,118.740962 139.438857,122.821043 143.585,123.651086 C142.303952,121.990995 143.05781,120.538838 143.05781,120.538838 C143.05781,120.538838 148.862762,119.986029 148.485905,113.485962 C148.712571,119.363071 152.180429,120.815224 152.180429,120.815224 C152.180429,120.815224 152.180429,124.065257 155.949667,124.342495 C153.914857,122.682405 154.366381,120.123819 154.366381,120.123819 C154.366381,120.123819 159.267286,116.873781 155.120286,111.341548 C157.608476,110.027138 159.644238,106.362933 159.644238,106.362933 C159.644238,106.362933 156.251952,105.048562 154.668667,103.942938 C153.913905,102.489933 154.593143,94.5377095 154.593143,94.5377095 L152.557333,84.2339476 L146.751476,100.277886 C146.977238,97.9956429 147.128429,107.192976 138.910762,107.192976 Z" id="Shape"></path>
                <path d="M179.497048,84.0540762 C179.676952,84.2199333 185.631238,90.3429286 191.403905,90.0112571 C193.568238,88.356919 186.893381,84.7166476 186.893381,83.8890714 C189.238571,85.8750429 199.160952,93.6515667 205.475952,90.8387952 C208.001048,87.5293857 200.965476,88.0260571 193.207524,79.0903238 C198.619381,82.3997762 212.150857,89.6804 218.464952,86.8676619 C221.171762,84.2199333 204.392857,75.9458762 198.80019,69.4928286 L184.368286,62.7089238 L164.703476,77.4360238 L179.497048,84.0540762 Z" id="Shape"></path>
                <path d="M157.307095,33.751681 C157.307095,33.751681 163.982,30.1113714 190.682381,31.9315286 C193.569143,32.2623857 208.903381,27.1329524 213.774571,25.6437143 C221.531619,24.3199524 246.247571,19.3558095 252.923286,14.722619 C257.613714,14.2262857 251.659381,22.6652381 245.706952,24.6508095 C239.391857,27.2983952 216.480524,34.5790571 208.361762,33.5862333 C218.104238,33.7517667 212.692381,41.0323429 196.455,37.5574857 C204.212952,41.5287381 201.32619,42.190619 201.32619,42.190619 C201.32619,42.190619 187.615714,42.8525 184.007524,40.0395238 C193.208429,43.183481 189.419381,44.341719 189.419381,44.341719 C189.419381,44.341719 180.038619,45.1690476 175.708,43.3488905 C182.382905,45.1690476 178.955476,46.3274 178.955476,46.3274 C178.955476,46.3274 173.543619,47.1547333 169.033143,45.665519 C164.523524,44.1763048 157.667857,33.751681 157.307095,33.751681 Z" id="Shape"></path>
                <path d="M168.013048,87.483981 L168.993571,103.665705 C168.993571,103.665705 168.465524,104.495752 168.013048,104.980076 C167.560524,105.463586 155.49719,103.250686 157.156,111.687229 C157.156,115.145205 157.231571,116.043733 159.795381,117.980214 C159.11619,115.69801 159.342905,114.108067 159.342905,114.108067 C159.342905,114.108067 162.73519,115.975248 166.052857,110.858033 C163.791286,115.905948 165.373619,117.703829 165.901714,117.842424 C166.429762,118.741771 164.997619,122.821043 169.520714,122.751743 C167.787238,121.230248 168.616619,119.017343 168.616619,119.017343 C168.616619,119.017343 173.366429,118.326748 171.707571,110.443014 C173.441952,108.852219 174.120238,110.37371 174.120238,110.37371 C174.120238,110.37371 174.647429,115.0759 178.794476,114.108067 C180.68,115.0759 178.493143,117.634486 178.493143,117.634486 C178.493143,117.634486 181.508476,117.703829 182.413476,115.35229 C183.318476,113.0016 184.373667,108.782919 179.39719,107.054338 C178.794476,105.3951 181.358286,105.256457 181.358286,105.256457 C181.358286,105.256457 184.524762,106.22429 185.428857,107.67649 C186.333857,109.128643 186.032476,103.8736 182.112095,103.319981 C177.286762,103.181386 176.985429,102.282852 176.985429,102.075724 C176.985429,101.867829 176.156,90.3198429 175.779095,87.0004667 L168.013048,87.483981 Z" id="Shape"></path>
                <path d="M184.794667,101.273743 C184.854,100.531995 176.563524,90.2934333 178.666714,88.9699952 C180.769,89.3668333 184.217095,94.0236619 187.010286,92.5120905 C186.163762,90.696919 183.668381,91.7191857 180.834714,87.072281 C178.001952,81.8189 177.588143,73.9326905 167.665762,65.3302476 C174.089667,74.4334952 188.661952,79.769381 189.279095,77.1150476 C189.89619,74.4607143 176.447476,64.4234905 177.136571,62.0043143 C179.811,66.9721952 193.314571,78.0416476 203.263905,77.1249714 C203.94581,74.9937571 195.116429,70.6925381 192.844095,66.6760048 C186.488571,62.7600762 169.48019,49.3131619 169.139286,46.1945571 C162.95019,37.9152381 159.086524,35.4106 157.287333,34.4570238 C156.591952,33.7057952 156.417476,32.9876143 156.281619,32.5310333 C152.439524,24.2234286 157.528429,21.5257619 160.506952,21.1268571 C162.958286,20.877 163.669857,21.2135714 165.433952,20.4300952 C163.345095,19.680619 161.25719,18.9797143 159.169238,18.2302381 C161.892286,20.0622381 168.847857,18.4493333 167.340143,23.7261429 C170.389714,22.6619524 176.878381,15.581381 159.986048,13.9834286 C154.488762,8.19904762 131.88681,4.8747619 126.229429,30.1205238 C126.681,30.4744714 126.917571,30.7653143 128.355143,31.7499952 C121.217857,28.5769571 101.96419,26.1300952 95.0257143,25.1018095 C76.2811905,20.1414286 56.8142381,8.18757143 54.9429524,9.65766667 C52.4400952,10.6765714 66.268381,22.4764286 65.549619,22.737619 C53.559381,16.325381 42.6058571,11.7824286 32.4137143,7.64842857 C25.2435238,5.19009524 18.0618571,-0.53347619 17.2699524,0.555333333 C14.6310952,5.5692381 28.7654762,18.1725238 31.394619,19.6550952 C34.0245714,21.0732857 54.7028095,29.8709952 54.3979048,29.9808333 C23.2525714,17.0147619 18.0307143,14.6641429 16.4678095,13.1691905 C13.7227143,12.6020952 7.03571429,4.32095238 5.17214286,4.85347619 C4.15190476,5.77280952 6.19814286,18.8576667 21.0601429,24.7312857 C23.4825714,26.350619 52.9174286,36.0356238 52.6291905,36.7949571 C52.5571905,36.9847095 18.9157619,24.0598095 17.609,23.5977143 C11.1228571,21.2649048 3.16414286,13.0879048 1.6762381,14.0074286 C0.256142857,14.8418095 5.34514286,23.692381 11.8992381,26.4682857 C15.334619,27.8587762 28.512,33.845 40.3842381,37.6550095 C41.1419524,37.9063286 19.044,29.9689667 8.41957143,25.8968571 C3.60233333,23.444619 1.33380952,20.388 0.600047619,21.0456667 C-0.485333333,21.7032381 2.35357143,34.7775952 36.495381,42.1549762 C37.3949048,42.5061286 48.513381,39.739119 47.9638571,40.1061095 C47.826381,40.1978857 36.9230476,42.3750238 35.8614286,42.3006238 C34.916619,42.1682619 28.9433333,42.949219 28.8352857,43.2331381 C28.474381,44.1175381 30.9994762,48.7989476 48.6277143,47.8226952 C50.8813333,47.6984333 63.1111905,43.7377524 62.0837143,44.5897476 C61.5699524,45.0159905 45.43,49.826281 44.2008095,49.9211762 C43.1331905,50.0595333 37.4632381,50.6033524 37.253619,51.1564857 C36.997619,51.9108762 41.4504286,55.242681 50.9172381,55.7764952 C59.2991429,56.184919 75.2262381,51.0790048 74.9067619,51.4100286 C74.5871905,51.7410095 59.5525714,56.4662857 59.1591429,56.7542524 C58.6151429,57.0364333 53.1097143,57.3103429 52.9164762,57.6981524 C52.4678571,58.6627048 60.8580952,65.8591619 85.6719048,58.1791905 C83.1791429,61.2675048 71.1514762,63.3797571 71.1687619,63.9358476 C71.113,64.3393286 73.818619,66.7370429 78.0236667,67.5951571 C80.1260476,68.0241952 83.0046667,67.9367095 85.6340952,67.5555429 C90.3569524,66.6883571 95.3342857,64.9746429 101.658286,59.6140143 C102.414,61.296381 85.8608095,68.9796286 86.6380476,69.7123143 C90.227381,72.7651857 102.150429,69.3187571 102.931238,68.9185952 C103.712952,68.5175857 125.891143,57.0471619 125.814667,55.7195905 C126.159238,57.4209143 97.221619,71.8427095 97.5337619,72.4343238 C99.391381,75.1529714 109.276857,72.2915524 109.749095,72.0415762 C110.220524,71.7923667 122.36481,65.775 122.697619,65.5976 C123.029619,65.4202048 108.424952,73.4376381 109.725762,74.6579143 C109.096952,79.8642762 132.534571,71.0646714 134.371476,69.9689333 C135.289952,69.4210619 123.112333,74.8798667 123.079952,77.4731238 C127.001286,83.554081 139.557571,81.6250143 141.494333,80.287519 C142.46319,79.6183905 140.354571,84.8049 141.033762,84.333781 C141.270381,84.236419 143.764905,81.5309286 144.723857,79.5729857 C144.417952,81.2718762 143.041619,83.9484476 142.238286,87.0194619 C141.434095,90.0904429 141.203762,93.5558238 140.100048,97.2374048 C139.84719,98.8545667 147.837286,94.0756667 146.67681,82.6514143 C147.360524,88.5937333 144.153524,99.7052667 144.992762,100.282824 C146.671429,101.437943 151.312333,94.7489286 151.781,90.2257571 C153.15919,92.5104286 156.051333,97.2794857 158.539571,98.3768429 C158.26881,94.9205333 158.587238,95.078981 157.467286,91.6820429 C158.113143,87.1721143 158.203143,80.9302857 158.359619,73.8823476 C165.120905,85.762 167.81781,90.7785667 165.928714,99.8760667 C167.939238,100.645033 171.150714,93.5261381 170.891667,89.8618857 C173.473476,100.043538 184.617429,101.569976 184.794667,101.273743 Z" id="Shape"></path>
                <path d="M72.1785238,25.8512381 C72.1785238,25.8512381 67.5764762,29.040381 61.849619,28.8528571 C63.2813333,34.1055476 75.1442381,30.0722476 75.1442381,30.0722476 C75.1442381,30.0722476 69.4173333,35.8877524 65.3267143,36.8256952 C67.7810952,38.7016619 78.1100476,38.0451286 79.8489048,37.1071429 C81.5869524,36.169119 84.6553333,32.5109905 84.6553333,32.5109905 C84.6553333,32.5109905 74.0193333,43.7667905 72.485381,43.6730667 C72.2808095,44.9862238 83.6325714,44.5172095 85.9849524,42.547481 C88.3364762,40.5776714 94.2682857,37.6699571 94.2682857,37.6699571 C94.2682857,37.6699571 78.7235714,47.6125667 78.0074762,47.6125667 C83.8368095,49.0196048 95.4953333,45.9241667 102.960905,41.7032571 C91.9158571,48.4567905 90.8939524,49.6761 85.2688571,51.9272762 C90.2804286,52.9591429 92.8361429,56.054581 109.813,49.3009333 C119.528429,45.0801095 125.050048,37.3885143 125.050048,37.3885143 C119.016571,44.7986571 109.505381,51.0836238 98.9730952,57.2740524 C98.3586667,58.399481 110.221381,62.9952333 125.35681,48.5505905" id="Shape"></path>
                <path d="M154.400619,57.1800095 C154.400619,57.1800095 155.423381,61.588481 159.513762,64.9655667 C163.605095,68.3418476 163.911857,71.6248952 163.911857,71.6248952" id="Shape"></path>
                <path d="M152.355857,28.4776857 C152.355857,28.4776857 153.787095,32.4171476 157.98,34.9497714 C162.275524,37.4823143 168.71919,45.4551952 169.230143,46.8621476 C169.724905,48.5650524 172.195143,60.8384619 171.991,62.1511714" id="Shape"></path>
                <path d="M126.278,34.574519 C126.584714,36.0752762 120.243619,43.6730667 128.936238,52.5838905 C121.061333,61.4003476 121.062238,62.5265857 121.062238,62.5265857 C121.062238,62.5265857 125.459333,64.7774381 133.334238,58.5867619 C146.321476,73.2197762 141.993619,79.9162429 141.993619,79.9162429" id="Shape"></path>
                <path d="M140.959095,69.5860667 C140.959095,69.5860667 139.762667,68.0142667 141.895571,62.1445714 C143.816143,64.2667095 145.951762,64.719681 146.888238,65.5786095 C147.823762,66.4375286 157.630095,67.7395429 158.253476,73.7503095" id="Shape"></path>
                <path d="M152.48719,14.4915238 C152.48719,14.0499524 150.512619,10.1637619 143.146,15.0214762 C147.094238,15.2421905 150.993905,17.3178095 152.48719,14.4915238 Z" id="Shape"></path>
                <path d="M222.794667,32.2624667 C223.155381,32.4278762 244.804619,36.7301524 252.021095,34.5790571 C242.82019,45.8310143 224.418381,38.2193667 224.418381,38.2193667 C233.438429,40.7014048 233.800095,40.5359952 236.685905,42.8525 C237.58819,45.0036 220.088714,44.0107762 214.31519,41.0323429 C230.37181,45.665519 230.732571,45.334581 231.274048,47.1547333 C231.996476,49.6367714 204.934429,46.4928143 202.58919,43.183481 C209.805619,48.3130524 213.774571,49.3059143 217.743524,51.622419 C212.872333,53.6081095 203.85219,55.5933476 187.254095,44.8381857 C209.083238,63.0397857 228.748095,61.8813905 231.815619,65.1908 C224.238476,75.4500143 194.831238,59.0686524 181.300667,50.7950048 C167.770143,42.5215571 210.88781,70.8171238 214.857667,70.3204095 C212.872333,73.1331429 198.620286,70.6512667 197.717952,69.3278286" id="Shape"></path>
                <path d="M228.387333,51.291481 C225.86219,51.638966 218.285048,51.638966 217.202857,51.465201" id="Shape"></path>
                <path d="M65.838,22.8497619 C65.838,22.8497619 82.303,30.8225857 89.2567143,30.2598143 C87.4161905,31.8543714 84.6544762,32.5109905 84.6544762,32.5109905 C86.393381,33.1676048 91.1998095,35.512581 98.4611905,34.0117476 C96.7223333,35.6063048 94.4724762,37.3885905 94.4724762,37.3885905 C94.4724762,37.3885905 100.711048,39.5458857 107.767333,36.169119 C105.620048,38.607819 104.392095,40.3901048 104.392095,40.3901048 L109.301143,40.6714714" id="Shape"></path>
            </g>
        </g>
        <g id="Flag_of_Benin" transform="translate(0.000000, -83.000000)" fill-rule="nonzero">
            <rect id="Rectangle-path" fill="#E8112D" x="0" y="0" width="1000" height="666.666667"></rect>
            <rect id="Rectangle-path" fill="#FCD116" x="0" y="0" width="1000" height="333.333333"></rect>
            <rect id="Rectangle-path" fill="#008751" x="0" y="0" width="400" height="666.666667"></rect>
        </g>
        <g id="Flag_of_the_Republic_of_the_Congo" transform="translate(0.000000, -83.000000)" fill-rule="nonzero">
            <rect id="green_area" fill="#009543" x="0" y="0" width="1000" height="666.666667"></rect>
            <polygon id="yellow_area" fill="#FBDE4A" points="0 666.666667 666.666667 0 1000 0 1000 666.666667"></polygon>
            <polygon id="red_area" fill="#DC241F" points="1000 0 1000 666.666667 333.333333 666.666667"></polygon>
        </g>
        <g id="Flag_of_Gabon" transform="translate(0.000000, -125.000000)" fill-rule="nonzero">
            <rect id="Rectangle-path" fill="#3A75C4" x="0" y="0" width="1000" height="750"></rect>
            <rect id="Rectangle-path" fill="#FCD116" x="0" y="0" width="1000" height="500"></rect>
            <rect id="Rectangle-path" fill="#009E60" x="0" y="0" width="1000" height="250"></rect>
        </g>
    </g>
</svg>