<?xml version="1.0" encoding="UTF-8"?>
<svg width="1000px" height="500px" viewBox="0 0 1000 500" version="1.1" xmlns="http://www.w3.org/2000/svg" xmlns:xlink="http://www.w3.org/1999/xlink">
    <!-- Generator: Sketch 51.1 (57501) - http://www.bohemiancoding.com/sketch -->
    <title>Artboard 6</title>
    <desc>Created with Sketch.</desc>
    <defs></defs>
    <g id="Artboard-6" stroke="none" stroke-width="1" fill="none" fill-rule="evenodd">
        <g id="Flag_of_Nigeria" fill-rule="nonzero">
            <rect id="Rectangle-path" fill="#008751" x="0" y="0" width="1000" height="500"></rect>
            <rect id="Rectangle-path" fill="#FFFFFF" x="333.333333" y="0" width="333.333333" height="500"></rect>
        </g>
        <g id="Flag_of_Ghana" transform="translate(0.000000, -83.000000)" fill-rule="nonzero">
            <rect id="Rectangle-path" fill="#006B3F" x="0" y="0" width="1000" height="666.666667"></rect>
            <rect id="Rectangle-path" fill="#FCD116" x="0" y="0" width="1000" height="444.444444"></rect>
            <rect id="Rectangle-path" fill="#CE1126" x="0" y="0" width="1000" height="222.222222"></rect>
            <polygon id="Shape" fill="#000000" points="500 222.222222 572.204444 444.444444 383.171111 307.104444 616.828889 307.104444 427.795556 444.444444"></polygon>
        </g>
        <g id="Flag_of_Senegal" transform="translate(0.000000, -126.000000)" fill-rule="nonzero">
            <rect id="Rectangle-path" fill="#00853F" x="0" y="0" width="1000" height="666.666667"></rect>
            <rect id="Rectangle-path" fill="#FDEF42" x="333.333333" y="0" width="666.666667" height="666.666667"></rect>
            <rect id="Rectangle-path" fill="#E31B23" x="666.666667" y="0" width="333.333333" height="666.666667"></rect>
            <g id="Group" transform="translate(377.777778, 222.222222)" fill="#00853F">
                <g id="c" transform="translate(68.888889, 0.000000)">
                    <polygon id="t" transform="translate(62.583959, 61.420279) rotate(18.000000) translate(-62.583959, -61.420279) " points="34.8061813 5.86472297 34.8061813 116.975834 90.3617369 116.975834"></polygon>
                    <g id="t-link" transform="translate(43.888889, 61.666667) scale(-1, 1) translate(-43.888889, -61.666667) ">
                        <polygon id="t" transform="translate(43.695070, 61.420279) rotate(18.000000) translate(-43.695070, -61.420279) " points="15.9172924 5.86472297 15.9172924 116.975834 71.472848 116.975834"></polygon>
                    </g>
                </g>
                <g id="c-link" transform="translate(169.246683, 95.831938) rotate(72.000000) translate(-169.246683, -95.831938) translate(115.913350, 34.165271)">
                    <g id="c">
                        <polygon id="t" transform="translate(62.583959, 61.420279) rotate(18.000000) translate(-62.583959, -61.420279) " points="34.8061813 5.86472297 34.8061813 116.975834 90.3617369 116.975834"></polygon>
                        <g id="t-link" transform="translate(43.888889, 61.666667) scale(-1, 1) translate(-43.888889, -61.666667) ">
                            <polygon id="t" transform="translate(43.695070, 61.420279) rotate(18.000000) translate(-43.695070, -61.420279) " points="15.9172924 5.86472297 15.9172924 116.975834 71.472848 116.975834"></polygon>
                        </g>
                    </g>
                </g>
                <g id="c-link" transform="translate(151.284937, 151.112507) rotate(144.000000) translate(-151.284937, -151.112507) translate(97.951604, 89.445840)">
                    <g id="c">
                        <polygon id="t" transform="translate(62.583959, 61.420279) rotate(18.000000) translate(-62.583959, -61.420279) " points="34.8061813 5.86472297 34.8061813 116.975834 90.3617369 116.975834"></polygon>
                        <g id="t-link" transform="translate(43.888889, 61.666667) scale(-1, 1) translate(-43.888889, -61.666667) ">
                            <polygon id="t" transform="translate(43.695070, 61.420279) rotate(18.000000) translate(-43.695070, -61.420279) " points="15.9172924 5.86472297 15.9172924 116.975834 71.472848 116.975834"></polygon>
                        </g>
                    </g>
                </g>
                <g id="c-link" transform="translate(93.159507, 151.112507) rotate(-144.000000) translate(-93.159507, -151.112507) translate(39.826174, 89.445840)">
                    <g id="c">
                        <polygon id="t" transform="translate(62.583959, 61.420279) rotate(18.000000) translate(-62.583959, -61.420279) " points="34.8061813 5.86472297 34.8061813 116.975834 90.3617369 116.975834"></polygon>
                        <g id="t-link" transform="translate(43.888889, 61.666667) scale(-1, 1) translate(-43.888889, -61.666667) ">
                            <polygon id="t" transform="translate(43.695070, 61.420279) rotate(18.000000) translate(-43.695070, -61.420279) " points="15.9172924 5.86472297 15.9172924 116.975834 71.472848 116.975834"></polygon>
                        </g>
                    </g>
                </g>
                <g id="c-link" transform="translate(75.197761, 95.831938) rotate(-72.000000) translate(-75.197761, -95.831938) translate(21.864428, 34.165271)">
                    <g id="c">
                        <polygon id="t" transform="translate(62.583959, 61.420279) rotate(18.000000) translate(-62.583959, -61.420279) " points="34.8061813 5.86472297 34.8061813 116.975834 90.3617369 116.975834"></polygon>
                        <g id="t-link" transform="translate(43.888889, 61.666667) scale(-1, 1) translate(-43.888889, -61.666667) ">
                            <polygon id="t" transform="translate(43.695070, 61.420279) rotate(18.000000) translate(-43.695070, -61.420279) " points="15.9172924 5.86472297 15.9172924 116.975834 71.472848 116.975834"></polygon>
                        </g>
                    </g>
                </g>
            </g>
        </g>
        <g id="Flag_of_Cameroon" transform="translate(0.000000, -83.000000)" fill-rule="nonzero">
            <rect id="Rectangle-path" fill="#007A5E" x="0" y="0" width="1000" height="666.666667"></rect>
            <rect id="Rectangle-path" fill="#CE1126" x="333.333333" y="0" width="666.666667" height="666.666667"></rect>
            <rect id="Rectangle-path" fill="#FCD116" x="666.666667" y="0" width="333.333333" height="666.666667"></rect>
            <g id="Group" transform="translate(400.000000, 244.444444)" fill="#FCD116">
                <g id="c" transform="translate(55.555556, 0.000000)">
                    <polygon id="t" transform="translate(51.844945, 49.136223) rotate(18.000000) translate(-51.844945, -49.136223) " points="29.6227228 4.69177838 29.6227228 93.5806673 74.0671673 93.5806673"></polygon>
                    <g id="t-link" transform="translate(38.888889, 50.000000) scale(-1, 1) translate(-38.888889, -50.000000) ">
                        <polygon id="t" transform="translate(40.733834, 49.136223) rotate(18.000000) translate(-40.733834, -49.136223) " points="18.5116117 4.69177838 18.5116117 93.5806673 62.9560562 93.5806673"></polygon>
                    </g>
                </g>
                <g id="c-link" transform="translate(136.985531, 76.871561) rotate(72.000000) translate(-136.985531, -76.871561) translate(92.541087, 26.871561)">
                    <g id="c">
                        <polygon id="t" transform="translate(51.844945, 49.136223) rotate(18.000000) translate(-51.844945, -49.136223) " points="29.6227228 4.69177838 29.6227228 93.5806673 74.0671673 93.5806673"></polygon>
                        <g id="t-link" transform="translate(38.888889, 50.000000) scale(-1, 1) translate(-38.888889, -50.000000) ">
                            <polygon id="t" transform="translate(40.733834, 49.136223) rotate(18.000000) translate(-40.733834, -49.136223) " points="18.5116117 4.69177838 18.5116117 93.5806673 62.9560562 93.5806673"></polygon>
                        </g>
                    </g>
                </g>
                <g id="c-link" transform="translate(122.858315, 120.350661) rotate(144.000000) translate(-122.858315, -120.350661) translate(78.413871, 70.350661)">
                    <g id="c">
                        <polygon id="t" transform="translate(51.844945, 49.136223) rotate(18.000000) translate(-51.844945, -49.136223) " points="29.6227228 4.69177838 29.6227228 93.5806673 74.0671673 93.5806673"></polygon>
                        <g id="t-link" transform="translate(38.888889, 50.000000) scale(-1, 1) translate(-38.888889, -50.000000) ">
                            <polygon id="t" transform="translate(40.733834, 49.136223) rotate(18.000000) translate(-40.733834, -49.136223) " points="18.5116117 4.69177838 18.5116117 93.5806673 62.9560562 93.5806673"></polygon>
                        </g>
                    </g>
                </g>
                <g id="c-link" transform="translate(77.141685, 120.350661) rotate(-144.000000) translate(-77.141685, -120.350661) translate(32.697240, 70.350661)">
                    <g id="c">
                        <polygon id="t" transform="translate(51.844945, 49.136223) rotate(18.000000) translate(-51.844945, -49.136223) " points="29.6227228 4.69177838 29.6227228 93.5806673 74.0671673 93.5806673"></polygon>
                        <g id="t-link" transform="translate(38.888889, 50.000000) scale(-1, 1) translate(-38.888889, -50.000000) ">
                            <polygon id="t" transform="translate(40.733834, 49.136223) rotate(18.000000) translate(-40.733834, -49.136223) " points="18.5116117 4.69177838 18.5116117 93.5806673 62.9560562 93.5806673"></polygon>
                        </g>
                    </g>
                </g>
                <g id="c-link" transform="translate(63.014469, 76.871561) rotate(-72.000000) translate(-63.014469, -76.871561) translate(18.570024, 26.871561)">
                    <g id="c">
                        <polygon id="t" transform="translate(51.844945, 49.136223) rotate(18.000000) translate(-51.844945, -49.136223) " points="29.6227228 4.69177838 29.6227228 93.5806673 74.0671673 93.5806673"></polygon>
                        <g id="t-link" transform="translate(38.888889, 50.000000) scale(-1, 1) translate(-38.888889, -50.000000) ">
                            <polygon id="t" transform="translate(40.733834, 49.136223) rotate(18.000000) translate(-40.733834, -49.136223) " points="18.5116117 4.69177838 18.5116117 93.5806673 62.9560562 93.5806673"></polygon>
                        </g>
                    </g>
                </g>
            </g>
        </g>
        <g id="Flag_of_Chad" transform="translate(0.000000, -83.000000)" fill-rule="nonzero">
            <rect id="Rectangle-path" fill="#C60C30" x="0" y="0" width="1000" height="666.666667"></rect>
            <rect id="Rectangle-path" fill="#FECB00" x="0" y="0" width="666.666667" height="666.666667"></rect>
            <rect id="Rectangle-path" fill="#002664" x="0" y="0" width="333.333333" height="666.666667"></rect>
        </g>
        <g id="Flag_of_France" transform="translate(0.000000, -83.000000)" fill-rule="nonzero">
            <rect id="Rectangle-path" fill="#ED2939" x="0" y="0" width="1000" height="666.666667"></rect>
            <rect id="Rectangle-path" fill="#FFFFFF" x="0" y="0" width="666.666667" height="666.666667"></rect>
            <rect id="Rectangle-path" fill="#002395" x="0" y="0" width="333.333333" height="666.666667"></rect>
        </g>
        <g id="Flag_of_the_United_States" transform="translate(0.000000, -13.000000)" fill-rule="nonzero">
            <rect id="Rectangle-path" fill="#B22234" x="0" y="0" width="1000" height="526.315789"></rect>
            <path d="M0,60.7287449 L1000,60.7287449" id="Path" stroke="#FFFFFF" stroke-width="40" fill="#000000"></path>
            <path d="M1000,141.700405 L0,141.700405" id="Path" stroke="#FFFFFF" stroke-width="40" fill="#000000"></path>
            <path d="M0,222.672065 L1000,222.672065" id="Path" stroke="#FFFFFF" stroke-width="40" fill="#000000"></path>
            <path d="M1000,303.643725 L0,303.643725" id="Path" stroke="#FFFFFF" stroke-width="40" fill="#000000"></path>
            <path d="M0,384.615385 L1000,384.615385" id="Path" stroke="#FFFFFF" stroke-width="40" fill="#000000"></path>
            <path d="M1000,465.587045 L0,465.587045" id="Path" stroke="#FFFFFF" stroke-width="40" fill="#000000"></path>
            <rect id="Rectangle-path" fill="#3C3B6E" x="0" y="0" width="400" height="283.40081"></rect>
            <g id="Group" transform="translate(17.813765, 12.145749)" fill="#FFFFFF">
                <g id="s18">
                    <g id="s9">
                        <g id="s5">
                            <g id="s4">
                                <polygon id="s" points="15.5195682 0 25.0383576 29.2958217 0.117843185 11.1900082 30.9212931 11.1900082 6.00077868 29.2958217"></polygon>
                                <g id="s-link" transform="translate(0.000000, 56.680162)">
                                    <polygon id="s" points="15.5195682 0 25.0383576 29.2958217 0.117843185 11.1900082 30.9212931 11.1900082 6.00077868 29.2958217"></polygon>
                                </g>
                                <g id="s-link" transform="translate(0.000000, 113.360324)">
                                    <polygon id="s" points="15.5195682 0 25.0383576 29.2958217 0.117843185 11.1900082 30.9212931 11.1900082 6.00077868 29.2958217"></polygon>
                                </g>
                                <g id="s-link" transform="translate(0.000000, 170.040486)">
                                    <polygon id="s" points="15.5195682 0 25.0383576 29.2958217 0.117843185 11.1900082 30.9212931 11.1900082 6.00077868 29.2958217"></polygon>
                                </g>
                            </g>
                            <g id="s-link" transform="translate(0.000000, 226.720648)">
                                <polygon id="s" points="15.5195682 0 25.0383576 29.2958217 0.117843185 11.1900082 30.9212931 11.1900082 6.00077868 29.2958217"></polygon>
                            </g>
                        </g>
                        <g id="s4-link" transform="translate(33.333333, 28.340081)">
                            <g id="s4">
                                <polygon id="s" points="15.5195682 0 25.0383576 29.2958217 0.117843185 11.1900082 30.9212931 11.1900082 6.00077868 29.2958217"></polygon>
                                <g id="s-link" transform="translate(0.000000, 56.680162)">
                                    <polygon id="s" points="15.5195682 0 25.0383576 29.2958217 0.117843185 11.1900082 30.9212931 11.1900082 6.00077868 29.2958217"></polygon>
                                </g>
                                <g id="s-link" transform="translate(0.000000, 113.360324)">
                                    <polygon id="s" points="15.5195682 0 25.0383576 29.2958217 0.117843185 11.1900082 30.9212931 11.1900082 6.00077868 29.2958217"></polygon>
                                </g>
                                <g id="s-link" transform="translate(0.000000, 170.040486)">
                                    <polygon id="s" points="15.5195682 0 25.0383576 29.2958217 0.117843185 11.1900082 30.9212931 11.1900082 6.00077868 29.2958217"></polygon>
                                </g>
                            </g>
                        </g>
                    </g>
                    <g id="s9-link" transform="translate(66.666667, 0.000000)">
                        <g id="s9">
                            <g id="s5">
                                <g id="s4">
                                    <polygon id="s" points="15.5195682 0 25.0383576 29.2958217 0.117843185 11.1900082 30.9212931 11.1900082 6.00077868 29.2958217"></polygon>
                                    <g id="s-link" transform="translate(0.000000, 56.680162)">
                                        <polygon id="s" points="15.5195682 0 25.0383576 29.2958217 0.117843185 11.1900082 30.9212931 11.1900082 6.00077868 29.2958217"></polygon>
                                    </g>
                                    <g id="s-link" transform="translate(0.000000, 113.360324)">
                                        <polygon id="s" points="15.5195682 0 25.0383576 29.2958217 0.117843185 11.1900082 30.9212931 11.1900082 6.00077868 29.2958217"></polygon>
                                    </g>
                                    <g id="s-link" transform="translate(0.000000, 170.040486)">
                                        <polygon id="s" points="15.5195682 0 25.0383576 29.2958217 0.117843185 11.1900082 30.9212931 11.1900082 6.00077868 29.2958217"></polygon>
                                    </g>
                                </g>
                                <g id="s-link" transform="translate(0.000000, 226.720648)">
                                    <polygon id="s" points="15.5195682 0 25.0383576 29.2958217 0.117843185 11.1900082 30.9212931 11.1900082 6.00077868 29.2958217"></polygon>
                                </g>
                            </g>
                            <g id="s4-link" transform="translate(33.333333, 28.340081)">
                                <g id="s4">
                                    <polygon id="s" points="15.5195682 0 25.0383576 29.2958217 0.117843185 11.1900082 30.9212931 11.1900082 6.00077868 29.2958217"></polygon>
                                    <g id="s-link" transform="translate(0.000000, 56.680162)">
                                        <polygon id="s" points="15.5195682 0 25.0383576 29.2958217 0.117843185 11.1900082 30.9212931 11.1900082 6.00077868 29.2958217"></polygon>
                                    </g>
                                    <g id="s-link" transform="translate(0.000000, 113.360324)">
                                        <polygon id="s" points="15.5195682 0 25.0383576 29.2958217 0.117843185 11.1900082 30.9212931 11.1900082 6.00077868 29.2958217"></polygon>
                                    </g>
                                    <g id="s-link" transform="translate(0.000000, 170.040486)">
                                        <polygon id="s" points="15.5195682 0 25.0383576 29.2958217 0.117843185 11.1900082 30.9212931 11.1900082 6.00077868 29.2958217"></polygon>
                                    </g>
                                </g>
                            </g>
                        </g>
                    </g>
                </g>
                <g id="s18-link" transform="translate(133.333333, 0.000000)">
                    <g id="s18">
                        <g id="s9">
                            <g id="s5">
                                <g id="s4">
                                    <polygon id="s" points="15.5195682 0 25.0383576 29.2958217 0.117843185 11.1900082 30.9212931 11.1900082 6.00077868 29.2958217"></polygon>
                                    <g id="s-link" transform="translate(0.000000, 56.680162)">
                                        <polygon id="s" points="15.5195682 0 25.0383576 29.2958217 0.117843185 11.1900082 30.9212931 11.1900082 6.00077868 29.2958217"></polygon>
                                    </g>
                                    <g id="s-link" transform="translate(0.000000, 113.360324)">
                                        <polygon id="s" points="15.5195682 0 25.0383576 29.2958217 0.117843185 11.1900082 30.9212931 11.1900082 6.00077868 29.2958217"></polygon>
                                    </g>
                                    <g id="s-link" transform="translate(0.000000, 170.040486)">
                                        <polygon id="s" points="15.5195682 0 25.0383576 29.2958217 0.117843185 11.1900082 30.9212931 11.1900082 6.00077868 29.2958217"></polygon>
                                    </g>
                                </g>
                                <g id="s-link" transform="translate(0.000000, 226.720648)">
                                    <polygon id="s" points="15.5195682 0 25.0383576 29.2958217 0.117843185 11.1900082 30.9212931 11.1900082 6.00077868 29.2958217"></polygon>
                                </g>
                            </g>
                            <g id="s4-link" transform="translate(33.333333, 28.340081)">
                                <g id="s4">
                                    <polygon id="s" points="15.5195682 0 25.0383576 29.2958217 0.117843185 11.1900082 30.9212931 11.1900082 6.00077868 29.2958217"></polygon>
                                    <g id="s-link" transform="translate(0.000000, 56.680162)">
                                        <polygon id="s" points="15.5195682 0 25.0383576 29.2958217 0.117843185 11.1900082 30.9212931 11.1900082 6.00077868 29.2958217"></polygon>
                                    </g>
                                    <g id="s-link" transform="translate(0.000000, 113.360324)">
                                        <polygon id="s" points="15.5195682 0 25.0383576 29.2958217 0.117843185 11.1900082 30.9212931 11.1900082 6.00077868 29.2958217"></polygon>
                                    </g>
                                    <g id="s-link" transform="translate(0.000000, 170.040486)">
                                        <polygon id="s" points="15.5195682 0 25.0383576 29.2958217 0.117843185 11.1900082 30.9212931 11.1900082 6.00077868 29.2958217"></polygon>
                                    </g>
                                </g>
                            </g>
                        </g>
                        <g id="s9-link" transform="translate(66.666667, 0.000000)">
                            <g id="s9">
                                <g id="s5">
                                    <g id="s4">
                                        <polygon id="s" points="15.5195682 0 25.0383576 29.2958217 0.117843185 11.1900082 30.9212931 11.1900082 6.00077868 29.2958217"></polygon>
                                        <g id="s-link" transform="translate(0.000000, 56.680162)">
                                            <polygon id="s" points="15.5195682 0 25.0383576 29.2958217 0.117843185 11.1900082 30.9212931 11.1900082 6.00077868 29.2958217"></polygon>
                                        </g>
                                        <g id="s-link" transform="translate(0.000000, 113.360324)">
                                            <polygon id="s" points="15.5195682 0 25.0383576 29.2958217 0.117843185 11.1900082 30.9212931 11.1900082 6.00077868 29.2958217"></polygon>
                                        </g>
                                        <g id="s-link" transform="translate(0.000000, 170.040486)">
                                            <polygon id="s" points="15.5195682 0 25.0383576 29.2958217 0.117843185 11.1900082 30.9212931 11.1900082 6.00077868 29.2958217"></polygon>
                                        </g>
                                    </g>
                                    <g id="s-link" transform="translate(0.000000, 226.720648)">
                                        <polygon id="s" points="15.5195682 0 25.0383576 29.2958217 0.117843185 11.1900082 30.9212931 11.1900082 6.00077868 29.2958217"></polygon>
                                    </g>
                                </g>
                                <g id="s4-link" transform="translate(33.333333, 28.340081)">
                                    <g id="s4">
                                        <polygon id="s" points="15.5195682 0 25.0383576 29.2958217 0.117843185 11.1900082 30.9212931 11.1900082 6.00077868 29.2958217"></polygon>
                                        <g id="s-link" transform="translate(0.000000, 56.680162)">
                                            <polygon id="s" points="15.5195682 0 25.0383576 29.2958217 0.117843185 11.1900082 30.9212931 11.1900082 6.00077868 29.2958217"></polygon>
                                        </g>
                                        <g id="s-link" transform="translate(0.000000, 113.360324)">
                                            <polygon id="s" points="15.5195682 0 25.0383576 29.2958217 0.117843185 11.1900082 30.9212931 11.1900082 6.00077868 29.2958217"></polygon>
                                        </g>
                                        <g id="s-link" transform="translate(0.000000, 170.040486)">
                                            <polygon id="s" points="15.5195682 0 25.0383576 29.2958217 0.117843185 11.1900082 30.9212931 11.1900082 6.00077868 29.2958217"></polygon>
                                        </g>
                                    </g>
                                </g>
                            </g>
                        </g>
                    </g>
                </g>
                <g id="s9-link" transform="translate(266.666667, 0.000000)">
                    <g id="s9">
                        <g id="s5">
                            <g id="s4">
                                <polygon id="s" points="15.5195682 0 25.0383576 29.2958217 0.117843185 11.1900082 30.9212931 11.1900082 6.00077868 29.2958217"></polygon>
                                <g id="s-link" transform="translate(0.000000, 56.680162)">
                                    <polygon id="s" points="15.5195682 0 25.0383576 29.2958217 0.117843185 11.1900082 30.9212931 11.1900082 6.00077868 29.2958217"></polygon>
                                </g>
                                <g id="s-link" transform="translate(0.000000, 113.360324)">
                                    <polygon id="s" points="15.5195682 0 25.0383576 29.2958217 0.117843185 11.1900082 30.9212931 11.1900082 6.00077868 29.2958217"></polygon>
                                </g>
                                <g id="s-link" transform="translate(0.000000, 170.040486)">
                                    <polygon id="s" points="15.5195682 0 25.0383576 29.2958217 0.117843185 11.1900082 30.9212931 11.1900082 6.00077868 29.2958217"></polygon>
                                </g>
                            </g>
                            <g id="s-link" transform="translate(0.000000, 226.720648)">
                                <polygon id="s" points="15.5195682 0 25.0383576 29.2958217 0.117843185 11.1900082 30.9212931 11.1900082 6.00077868 29.2958217"></polygon>
                            </g>
                        </g>
                        <g id="s4-link" transform="translate(33.333333, 28.340081)">
                            <g id="s4">
                                <polygon id="s" points="15.5195682 0 25.0383576 29.2958217 0.117843185 11.1900082 30.9212931 11.1900082 6.00077868 29.2958217"></polygon>
                                <g id="s-link" transform="translate(0.000000, 56.680162)">
                                    <polygon id="s" points="15.5195682 0 25.0383576 29.2958217 0.117843185 11.1900082 30.9212931 11.1900082 6.00077868 29.2958217"></polygon>
                                </g>
                                <g id="s-link" transform="translate(0.000000, 113.360324)">
                                    <polygon id="s" points="15.5195682 0 25.0383576 29.2958217 0.117843185 11.1900082 30.9212931 11.1900082 6.00077868 29.2958217"></polygon>
                                </g>
                                <g id="s-link" transform="translate(0.000000, 170.040486)">
                                    <polygon id="s" points="15.5195682 0 25.0383576 29.2958217 0.117843185 11.1900082 30.9212931 11.1900082 6.00077868 29.2958217"></polygon>
                                </g>
                            </g>
                        </g>
                    </g>
                </g>
                <g id="s5-link" transform="translate(333.333333, 0.000000)">
                    <g id="s5">
                        <g id="s4">
                            <polygon id="s" points="15.5195682 0 25.0383576 29.2958217 0.117843185 11.1900082 30.9212931 11.1900082 6.00077868 29.2958217"></polygon>
                            <g id="s-link" transform="translate(0.000000, 56.680162)">
                                <polygon id="s" points="15.5195682 0 25.0383576 29.2958217 0.117843185 11.1900082 30.9212931 11.1900082 6.00077868 29.2958217"></polygon>
                            </g>
                            <g id="s-link" transform="translate(0.000000, 113.360324)">
                                <polygon id="s" points="15.5195682 0 25.0383576 29.2958217 0.117843185 11.1900082 30.9212931 11.1900082 6.00077868 29.2958217"></polygon>
                            </g>
                            <g id="s-link" transform="translate(0.000000, 170.040486)">
                                <polygon id="s" points="15.5195682 0 25.0383576 29.2958217 0.117843185 11.1900082 30.9212931 11.1900082 6.00077868 29.2958217"></polygon>
                            </g>
                        </g>
                        <g id="s-link" transform="translate(0.000000, 226.720648)">
                            <polygon id="s" points="15.5195682 0 25.0383576 29.2958217 0.117843185 11.1900082 30.9212931 11.1900082 6.00077868 29.2958217"></polygon>
                        </g>
                    </g>
                </g>
            </g>
        </g>
        <g id="Flag_of_Kenya" transform="translate(0.000000, -83.000000)" fill-rule="nonzero">
            <rect id="Rectangle-path" fill="#FFFFFF" x="0" y="0" width="1000" height="666.666667"></rect>
            <rect id="Rectangle-path" fill="#000000" x="0" y="0" width="1000" height="200"></rect>
            <rect id="Rectangle-path" fill="#BB0000" x="0" y="233.333333" width="1000" height="200"></rect>
            <rect id="Rectangle-path" fill="#006600" x="0" y="466.666667" width="1000" height="200"></rect>
            <g id="Group" transform="translate(354.166667, 91.666667)">
                <g id="spear" transform="translate(16.666667, 0.000000)">
                    <g id="spearshape-link" fill="#000000">
                        <path d="M134.622504,475.185117 L142.955838,475.185117 L142.955838,85.9116756 C151.289171,77.5783423 151.289171,65.0783423 151.289171,52.5783423 C151.289171,44.245009 151.289171,10.9116756 138.789171,-25.1851166 C126.289171,10.9116756 126.289171,44.245009 126.289171,52.5783423 C126.289171,65.0783423 126.289171,77.5783423 134.622504,85.9116756 L134.622504,475.185117 Z" id="spearshape" transform="translate(138.789171, 225.000000) rotate(30.000000) translate(-138.789171, -225.000000) "></path>
                    </g>
                    <g id="spearshape-link" fill="#FFFFFF">
                        <path d="M134.622504,475.185117 L142.955838,475.185117 L142.955838,85.9116756 C151.289171,77.5783423 151.289171,65.0783423 151.289171,52.5783423 C151.289171,44.245009 151.289171,10.9116756 138.789171,-25.1851166 C126.289171,10.9116756 126.289171,44.245009 126.289171,52.5783423 C126.289171,65.0783423 126.289171,77.5783423 134.622504,85.9116756 L134.622504,475.185117 Z" id="spearshape" transform="translate(138.789171, 225.000000) rotate(30.000000) translate(-138.789171, -225.000000) "></path>
                    </g>
                </g>
                <g id="spear-link" transform="translate(137.500000, 225.000000) scale(-1, 1) translate(-137.500000, -225.000000) ">
                    <g id="spear">
                        <g id="spearshape-link" fill="#000000">
                            <path d="M134.622504,475.185117 L142.955838,475.185117 L142.955838,85.9116756 C151.289171,77.5783423 151.289171,65.0783423 151.289171,52.5783423 C151.289171,44.245009 151.289171,10.9116756 138.789171,-25.1851166 C126.289171,10.9116756 126.289171,44.245009 126.289171,52.5783423 C126.289171,65.0783423 126.289171,77.5783423 134.622504,85.9116756 L134.622504,475.185117 Z" id="spearshape" transform="translate(138.789171, 225.000000) rotate(30.000000) translate(-138.789171, -225.000000) "></path>
                        </g>
                        <g id="spearshape-link" fill="#FFFFFF">
                            <path d="M134.622504,475.185117 L142.955838,475.185117 L142.955838,85.9116756 C151.289171,77.5783423 151.289171,65.0783423 151.289171,52.5783423 C151.289171,44.245009 151.289171,10.9116756 138.789171,-25.1851166 C126.289171,10.9116756 126.289171,44.245009 126.289171,52.5783423 C126.289171,65.0783423 126.289171,77.5783423 134.622504,85.9116756 L134.622504,475.185117 Z" id="spearshape" transform="translate(138.789171, 225.000000) rotate(30.000000) translate(-138.789171, -225.000000) "></path>
                        </g>
                    </g>
                </g>
                <path d="M66.6666667,341.666667 C79.1666667,375 120.833333,441.666667 145.833333,441.666667 C170.833333,441.666667 212.5,375 225,341.666667 L225,141.666667 C212.5,108.333333 170.833333,41.6666667 145.833333,41.6666667 C120.833333,41.6666667 79.1666667,108.333333 66.6666667,141.666667 L66.6666667,341.666667 Z" id="Shape" fill="#BB0000"></path>
                <path d="M225,341.666667 C237.5,308.333333 245.833333,275 245.833333,241.666667 C245.833333,208.333333 237.5,175 225,141.666667 C212.5,175 204.166667,208.333333 204.166667,241.666667 C204.166667,275 212.5,308.333333 225,341.666667 Z" id="deco_r" fill="#000000"></path>
                <g id="deco_r-link" transform="translate(66.666667, 241.666667) scale(-1, 1) translate(-66.666667, -241.666667) translate(45.833333, 141.666667)" fill="#000000">
                    <path d="M20.8333333,200 C33.3333333,166.666667 41.6666667,133.333333 41.6666667,100 C41.6666667,66.6666667 33.3333333,33.3333333 20.8333333,0 C8.33333333,33.3333333 0,66.6666667 0,100 C0,133.333333 8.33333333,166.666667 20.8333333,200 Z" id="deco_r"></path>
                </g>
                <g transform="translate(125.000000, 41.666667)" fill="#FFFFFF">
                    <ellipse id="Oval" cx="20.8333333" cy="200" rx="16.6666667" ry="25"></ellipse>
                    <path d="M25,224.375 C25,224.375 41.6666667,257.708333 41.6666667,311.875 C41.6666667,366.041667 25,399.375 25,399.375 L25,224.375 Z" id="deco_br"></path>
                    <g id="deco_br-link" transform="translate(8.333333, 89.583333) rotate(180.000000) translate(-8.333333, -89.583333) ">
                        <path d="M0,3.54166667 C0,3.54166667 16.6666667,36.875 16.6666667,91.0416667 C16.6666667,145.208333 0,178.541667 0,178.541667 L0,3.54166667 Z" id="deco_br"></path>
                    </g>
                    <g id="deco_br-link" transform="translate(8.333333, 310.416667) scale(-1, 1) translate(-8.333333, -310.416667) translate(0.000000, 220.833333)">
                        <path d="M0,3.54166667 C0,3.54166667 16.6666667,36.875 16.6666667,91.0416667 C16.6666667,145.208333 0,178.541667 0,178.541667 L0,3.54166667 Z" id="deco_br"></path>
                    </g>
                    <g id="deco_br-link" transform="translate(33.333333, 89.583333) scale(-1, 1) rotate(-180.000000) translate(-33.333333, -89.583333) translate(25.000000, 0.000000)">
                        <path d="M0,3.54166667 C0,3.54166667 16.6666667,36.875 16.6666667,91.0416667 C16.6666667,145.208333 0,178.541667 0,178.541667 L0,3.54166667 Z" id="deco_br"></path>
                    </g>
                </g>
            </g>
        </g>
    </g>
</svg>