<?xml version="1.0" encoding="UTF-8"?>
<svg width="1000px" height="500px" viewBox="0 0 1000 500" version="1.1" xmlns="http://www.w3.org/2000/svg" xmlns:xlink="http://www.w3.org/1999/xlink">
    <!-- Generator: Sketch 51.1 (57501) - http://www.bohemiancoding.com/sketch -->
    <title>Artboard 6</title>
    <desc>Created with Sketch.</desc>
    <defs></defs>
    <g id="Artboard-6" stroke="none" stroke-width="1" fill="none" fill-rule="evenodd">
        <g id="Flag_of_Nigeria" fill-rule="nonzero">
            <rect id="Rectangle-path" fill="#008751" x="0" y="0" width="1000" height="500"></rect>
            <rect id="Rectangle-path" fill="#FFFFFF" x="333.333333" y="0" width="333.333333" height="500"></rect>
        </g>
        <g id="Flag_of_Ghana" transform="translate(0.000000, -83.000000)" fill-rule="nonzero">
            <rect id="Rectangle-path" fill="#006B3F" x="0" y="0" width="1000" height="666.666667"></rect>
            <rect id="Rectangle-path" fill="#FCD116" x="0" y="0" width="1000" height="444.444444"></rect>
            <rect id="Rectangle-path" fill="#CE1126" x="0" y="0" width="1000" height="222.222222"></rect>
            <polygon id="Shape" fill="#000000" points="500 222.222222 572.204444 444.444444 383.171111 307.104444 616.828889 307.104444 427.795556 444.444444"></polygon>
        </g>
        <g id="Flag_of_Senegal" transform="translate(0.000000, -83.000000)" fill-rule="nonzero">
            <rect id="Rectangle-path" fill="#00853F" x="0" y="0" width="1000" height="666.666667"></rect>
            <rect id="Rectangle-path" fill="#FDEF42" x="333.333333" y="0" width="666.666667" height="666.666667"></rect>
            <rect id="Rectangle-path" fill="#E31B23" x="666.666667" y="0" width="333.333333" height="666.666667"></rect>
            <g id="Group" transform="translate(377.777778, 222.222222)" fill="#00853F">
                <g id="c" transform="translate(68.888889, 0.000000)">
                    <polygon id="t" transform="translate(62.583959, 61.420279) rotate(18.000000) translate(-62.583959, -61.420279) " points="34.8061813 5.86472297 34.8061813 116.975834 90.3617369 116.975834"></polygon>
                    <g id="t-link" transform="translate(43.888889, 61.666667) scale(-1, 1) translate(-43.888889, -61.666667) ">
                        <polygon id="t" transform="translate(43.695070, 61.420279) rotate(18.000000) translate(-43.695070, -61.420279) " points="15.9172924 5.86472297 15.9172924 116.975834 71.472848 116.975834"></polygon>
                    </g>
                </g>
                <g id="c-link" transform="translate(169.246683, 95.831938) rotate(72.000000) translate(-169.246683, -95.831938) translate(115.913350, 34.165271)">
                    <g id="c">
                        <polygon id="t" transform="translate(62.583959, 61.420279) rotate(18.000000) translate(-62.583959, -61.420279) " points="34.8061813 5.86472297 34.8061813 116.975834 90.3617369 116.975834"></polygon>
                        <g id="t-link" transform="translate(43.888889, 61.666667) scale(-1, 1) translate(-43.888889, -61.666667) ">
                            <polygon id="t" transform="translate(43.695070, 61.420279) rotate(18.000000) translate(-43.695070, -61.420279) " points="15.9172924 5.86472297 15.9172924 116.975834 71.472848 116.975834"></polygon>
                        </g>
                    </g>
                </g>
                <g id="c-link" transform="translate(151.284937, 151.112507) rotate(144.000000) translate(-151.284937, -151.112507) translate(97.951604, 89.445840)">
                    <g id="c">
                        <polygon id="t" transform="translate(62.583959, 61.420279) rotate(18.000000) translate(-62.583959, -61.420279) " points="34.8061813 5.86472297 34.8061813 116.975834 90.3617369 116.975834"></polygon>
                        <g id="t-link" transform="translate(43.888889, 61.666667) scale(-1, 1) translate(-43.888889, -61.666667) ">
                            <polygon id="t" transform="translate(43.695070, 61.420279) rotate(18.000000) translate(-43.695070, -61.420279) " points="15.9172924 5.86472297 15.9172924 116.975834 71.472848 116.975834"></polygon>
                        </g>
                    </g>
                </g>
                <g id="c-link" transform="translate(93.159507, 151.112507) rotate(-144.000000) translate(-93.159507, -151.112507) translate(39.826174, 89.445840)">
                    <g id="c">
                        <polygon id="t" transform="translate(62.583959, 61.420279) rotate(18.000000) translate(-62.583959, -61.420279) " points="34.8061813 5.86472297 34.8061813 116.975834 90.3617369 116.975834"></polygon>
                        <g id="t-link" transform="translate(43.888889, 61.666667) scale(-1, 1) translate(-43.888889, -61.666667) ">
                            <polygon id="t" transform="translate(43.695070, 61.420279) rotate(18.000000) translate(-43.695070, -61.420279) " points="15.9172924 5.86472297 15.9172924 116.975834 71.472848 116.975834"></polygon>
                        </g>
                    </g>
                </g>
                <g id="c-link" transform="translate(75.197761, 95.831938) rotate(-72.000000) translate(-75.197761, -95.831938) translate(21.864428, 34.165271)">
                    <g id="c">
                        <polygon id="t" transform="translate(62.583959, 61.420279) rotate(18.000000) translate(-62.583959, -61.420279) " points="34.8061813 5.86472297 34.8061813 116.975834 90.3617369 116.975834"></polygon>
                        <g id="t-link" transform="translate(43.888889, 61.666667) scale(-1, 1) translate(-43.888889, -61.666667) ">
                            <polygon id="t" transform="translate(43.695070, 61.420279) rotate(18.000000) translate(-43.695070, -61.420279) " points="15.9172924 5.86472297 15.9172924 116.975834 71.472848 116.975834"></polygon>
                        </g>
                    </g>
                </g>
            </g>
        </g>
    </g>
</svg>